<?xml version="1.0" encoding="UTF-8"?>
<!DOCTYPE svg PUBLIC "-//W3C//DTD SVG 1.1//EN" "http://www.w3.org/Graphics/SVG/1.1/DTD/svg11.dtd">
<svg xmlns="http://www.w3.org/2000/svg" version="1.1" width="1435px" height="423px" style="shape-rendering:geometricPrecision; text-rendering:geometricPrecision; image-rendering:optimizeQuality; fill-rule:evenodd; clip-rule:evenodd" xmlns:xlink="http://www.w3.org/1999/xlink">
<g><path style="opacity:1" fill="#fefefe" d="M -0.5,-0.5 C 477.833,-0.5 956.167,-0.5 1434.5,-0.5C 1434.5,140.5 1434.5,281.5 1434.5,422.5C 956.167,422.5 477.833,422.5 -0.5,422.5C -0.5,281.5 -0.5,140.5 -0.5,-0.5 Z"/></g>
<g><path style="opacity:1" fill="#263e80" d="M 1017.5,11.5 C 1017.5,97.5 1017.5,183.5 1017.5,269.5C 1001.5,269.5 985.5,269.5 969.5,269.5C 969.5,183.5 969.5,97.5 969.5,11.5C 985.5,11.5 1001.5,11.5 1017.5,11.5 Z"/></g>
<g><path style="opacity:1" fill="#a9b3cd" d="M 1017.5,11.5 C 1018.5,97.6651 1018.83,183.998 1018.5,270.5C 1001.99,270.83 985.658,270.496 969.5,269.5C 985.5,269.5 1001.5,269.5 1017.5,269.5C 1017.5,183.5 1017.5,97.5 1017.5,11.5 Z"/></g>
<g><path style="opacity:1" fill="#273e80" d="M 634.5,68.5 C 668.276,65.9187 698.276,75.0854 724.5,96C 726.351,97.6837 728.018,99.5171 729.5,101.5C 717.505,111.991 705.339,122.325 693,132.5C 673.285,113.356 650.452,108.523 624.5,118C 597.109,132.621 586.942,155.121 594,185.5C 601.637,208.417 617.471,221.583 641.5,225C 661.868,226.49 679.201,219.99 693.5,205.5C 705.94,214.806 718.107,224.472 730,234.5C 730.667,235.167 730.667,235.833 730,236.5C 710.941,255.759 687.774,266.593 660.5,269C 620.928,273.117 587.761,260.617 561,231.5C 538.585,200.057 533.918,166.057 547,129.5C 565.36,93.7313 594.527,73.398 634.5,68.5 Z"/></g>
<g><path style="opacity:1" fill="#273f80" d="M 1326.5,68.5 C 1355.31,67.0362 1381.98,73.7028 1406.5,88.5C 1398.86,100.134 1390.86,111.467 1382.5,122.5C 1366.08,111.727 1348.08,107.227 1328.5,109C 1318.71,112.745 1315.54,119.578 1319,129.5C 1323.89,134.7 1329.72,138.534 1336.5,141C 1356.63,145.736 1375.3,153.736 1392.5,165C 1409.97,180.013 1416.14,198.847 1411,221.5C 1406.4,241.439 1394.57,255.272 1375.5,263C 1340.5,273.724 1306.5,271.058 1273.5,255C 1267.29,252.07 1261.63,248.403 1256.5,244C 1262.79,233.933 1268.95,223.766 1275,213.5C 1276.01,211.154 1277.68,209.487 1280,208.5C 1287.75,213.627 1295.92,218.127 1304.5,222C 1318.35,227.979 1332.68,229.645 1347.5,227C 1357.9,223.548 1361.73,216.382 1359,205.5C 1355.25,199.863 1350.08,196.03 1343.5,194C 1325.18,188.561 1307.51,181.561 1290.5,173C 1268.34,157.196 1260.84,136.029 1268,109.5C 1275.87,89.9638 1290.04,77.4638 1310.5,72C 1316.01,71.0552 1321.35,69.8885 1326.5,68.5 Z"/></g>
<g><path style="opacity:1" fill="#263e80" d="M 761.5,72.5 C 778.833,72.5 796.167,72.5 813.5,72.5C 813.333,114.501 813.5,156.501 814,198.5C 818.628,217.101 830.628,225.768 850,224.5C 868.083,226.045 880.083,218.378 886,201.5C 887.473,158.539 887.973,115.539 887.5,72.5C 904.5,72.5 921.5,72.5 938.5,72.5C 938.5,136.833 938.5,201.167 938.5,265.5C 922.833,265.5 907.167,265.5 891.5,265.5C 891.828,260.125 891.495,254.792 890.5,249.5C 878.58,260.459 864.58,267.126 848.5,269.5C 838.815,269.578 829.148,269.245 819.5,268.5C 786.381,263.048 767.381,243.714 762.5,210.5C 761.547,164.512 761.213,118.512 761.5,72.5 Z"/></g>
<g><path style="opacity:1" fill="#273e80" d="M 1225.5,72.5 C 1225.5,136.833 1225.5,201.167 1225.5,265.5C 1209.83,265.5 1194.17,265.5 1178.5,265.5C 1178.83,259.794 1178.5,254.128 1177.5,248.5C 1176.89,248.624 1176.56,248.957 1176.5,249.5C 1166.15,259.009 1154.15,265.342 1140.5,268.5C 1129.83,269.75 1119.16,269.75 1108.5,268.5C 1081.31,266.463 1062.81,252.796 1053,227.5C 1050.17,218.374 1048.51,209.041 1048,199.5C 1047.5,157.168 1047.33,114.835 1047.5,72.5C 1065.17,72.5 1082.83,72.5 1100.5,72.5C 1100.33,114.835 1100.5,157.168 1101,199.5C 1105.82,216.796 1117.32,225.129 1135.5,224.5C 1147.64,225.288 1158.14,221.621 1167,213.5C 1170.91,207.778 1173.24,201.445 1174,194.5C 1174.5,153.835 1174.67,113.168 1174.5,72.5C 1191.5,72.5 1208.5,72.5 1225.5,72.5 Z"/></g>
<g><path style="opacity:1" fill="#273f80" d="M 195.5,73.5 C 210.167,73.5 224.833,73.5 239.5,73.5C 239.5,138.833 239.5,204.167 239.5,269.5C 222.167,269.5 204.833,269.5 187.5,269.5C 187.667,226.499 187.5,183.499 187,140.5C 147.472,183.359 107.972,226.193 68.5,269C 49.1695,269.5 29.8362,269.667 10.5,269.5C 11.3509,264.799 13.5176,260.799 17,257.5C 64.0743,206.43 110.408,154.763 156,102.5C 162.864,95.3017 170.03,88.4684 177.5,82C 183.366,78.6673 189.366,75.834 195.5,73.5 Z"/></g>
<g><path style="opacity:1" fill="#b9c1d6" d="M 457.5,73.5 C 457.5,138.833 457.5,204.167 457.5,269.5C 474.833,269.5 492.167,269.5 509.5,269.5C 509.5,204.167 509.5,138.833 509.5,73.5C 510.499,138.998 510.832,204.665 510.5,270.5C 492.5,270.5 474.5,270.5 456.5,270.5C 456.168,204.665 456.501,138.998 457.5,73.5 Z"/></g>
<g><path style="opacity:1" fill="#263e80" d="M 457.5,73.5 C 474.833,73.5 492.167,73.5 509.5,73.5C 509.5,138.833 509.5,204.167 509.5,269.5C 492.167,269.5 474.833,269.5 457.5,269.5C 457.5,204.167 457.5,138.833 457.5,73.5 Z"/></g>
<g><path style="opacity:1" fill="#5c6e9f" d="M 938.5,72.5 C 939.499,136.998 939.832,201.665 939.5,266.5C 923.325,266.83 907.325,266.496 891.5,265.5C 907.167,265.5 922.833,265.5 938.5,265.5C 938.5,201.167 938.5,136.833 938.5,72.5 Z"/></g>
<g><path style="opacity:1" fill="#273e80" d="M 269.5,73.5 C 301.835,73.3334 334.168,73.5 366.5,74C 398.099,77.6008 417.933,94.7675 426,125.5C 429.193,143.869 425.859,160.869 416,176.5C 405.601,190.456 391.768,198.956 374.5,202C 356.196,203.351 337.863,203.851 319.5,203.5C 319.5,225.5 319.5,247.5 319.5,269.5C 302.833,269.5 286.167,269.5 269.5,269.5C 269.5,204.167 269.5,138.833 269.5,73.5 Z"/></g>
<g><path style="opacity:1" fill="#a1abc8" d="M 761.5,72.5 C 761.213,118.512 761.547,164.512 762.5,210.5C 761.686,208.369 761.186,206.036 761,203.5C 760.169,159.665 760.335,115.998 761.5,72.5 Z"/></g>
<g><path style="opacity:1" fill="#fdfdfe" d="M 320.5,115.5 C 332.505,115.333 344.505,115.5 356.5,116C 373.641,120.438 379.807,131.271 375,148.5C 370.8,156.186 364.3,160.186 355.5,160.5C 343.833,160.5 332.167,160.5 320.5,160.5C 320.5,145.5 320.5,130.5 320.5,115.5 Z"/></g>
<g><path style="opacity:1" fill="#b8c0d6" d="M 320.5,115.5 C 320.5,130.5 320.5,145.5 320.5,160.5C 332.167,160.5 343.833,160.5 355.5,160.5C 343.678,161.495 331.678,161.828 319.5,161.5C 319.17,145.991 319.504,130.658 320.5,115.5 Z"/></g>
<g><path style="opacity:1" fill="#5c6d9f" d="M 1225.5,72.5 C 1226.5,136.998 1226.83,201.665 1226.5,266.5C 1210.17,266.5 1193.83,266.5 1177.5,266.5C 1177.82,260.642 1177.49,254.975 1176.5,249.5C 1176.56,248.957 1176.89,248.624 1177.5,248.5C 1178.5,254.128 1178.83,259.794 1178.5,265.5C 1194.17,265.5 1209.83,265.5 1225.5,265.5C 1225.5,201.167 1225.5,136.833 1225.5,72.5 Z"/></g>
<g><path style="opacity:1" fill="#bcc3d7" d="M 819.5,268.5 C 829.148,269.245 838.815,269.578 848.5,269.5C 845.016,270.165 841.349,270.499 837.5,270.5C 831.267,270.62 825.267,269.953 819.5,268.5 Z"/></g>
<g><path style="opacity:1" fill="#a8b1cc" d="M 1108.5,268.5 C 1119.16,269.75 1129.83,269.75 1140.5,268.5C 1134.89,269.883 1129.06,270.55 1123,270.5C 1117.91,270.656 1113.08,269.99 1108.5,268.5 Z"/></g>
<g><path style="opacity:1" fill="#606e9c" d="M 964.5,301.5 C 963.506,310.986 963.173,320.652 963.5,330.5C 963.167,330.5 962.833,330.5 962.5,330.5C 962.5,320.5 962.5,310.5 962.5,300.5C 963.327,299.561 963.994,299.895 964.5,301.5 Z"/></g>
<g><path style="opacity:1" fill="#273f80" d="M 872.5,300.5 C 872.5,310.5 872.5,320.5 872.5,330.5C 862.368,340.131 852.368,349.964 842.5,360C 852.368,370.036 862.368,379.869 872.5,389.5C 872.5,399.167 872.5,408.833 872.5,418.5C 852.521,399.188 832.854,379.521 813.5,359.5C 832.854,339.479 852.521,319.812 872.5,300.5 Z"/></g>
<g><path style="opacity:1" fill="#ee9c45" d="M 872.5,300.5 C 886.812,314.146 900.812,328.146 914.5,342.5C 910.167,347.5 905.5,352.167 900.5,356.5C 890.846,348.179 881.512,339.512 872.5,330.5C 872.5,320.5 872.5,310.5 872.5,300.5 Z"/></g>
<g><path style="opacity:1" fill="#ef9c44" d="M 962.5,300.5 C 962.5,310.5 962.5,320.5 962.5,330.5C 932.535,359.965 902.701,389.632 873,419.5C 872.601,419.272 872.435,418.938 872.5,418.5C 872.5,408.833 872.5,399.167 872.5,389.5C 902.5,359.833 932.5,330.167 962.5,300.5 Z"/></g>
<g><path style="opacity:1" fill="#273e80" d="M 964.5,301.5 C 983.479,321.146 1002.81,340.479 1022.5,359.5C 1002.83,379.833 982.833,399.833 962.5,419.5C 948.681,405.181 934.681,391.014 920.5,377C 925.333,372.167 930.167,367.333 935,362.5C 944.014,371.681 953.181,380.681 962.5,389.5C 972.486,380.014 982.319,370.348 992,360.5C 992.667,359.833 992.667,359.167 992,358.5C 982.632,348.964 973.132,339.631 963.5,330.5C 963.173,320.652 963.506,310.986 964.5,301.5 Z"/></g>
<g><path style="opacity:1" fill="#1d417e" d="M 725.5,315.5 C 736.705,315.524 740.872,320.858 738,331.5C 736.891,333.815 735.057,335.315 732.5,336C 740.322,339.157 742.488,344.657 739,352.5C 737.235,355.473 734.735,357.64 731.5,359C 723.841,359.5 716.174,359.666 708.5,359.5C 708.5,344.833 708.5,330.167 708.5,315.5C 714.167,315.5 719.833,315.5 725.5,315.5 Z"/></g>
<g><path style="opacity:1" fill="#20437f" d="M 744.5,314.5 C 747.898,314.18 751.232,314.513 754.5,315.5C 757.333,321.167 760.167,326.833 763,332.5C 766.294,326.747 769.46,320.913 772.5,315C 775.882,314.176 779.216,314.343 782.5,315.5C 777.466,324.039 772.633,332.706 768,341.5C 767.501,347.491 767.334,353.491 767.5,359.5C 764.5,359.5 761.5,359.5 758.5,359.5C 758.666,353.491 758.499,347.491 758,341.5C 752.962,332.757 748.462,323.757 744.5,314.5 Z"/></g>
<g><path style="opacity:1" fill="#929ebf" d="M 1064.5,322.5 C 1058.97,322.179 1053.64,322.512 1048.5,323.5C 1047.96,323.44 1047.62,323.107 1047.5,322.5C 1053.32,321.184 1058.99,321.184 1064.5,322.5 Z"/></g>
<g><path style="opacity:1" fill="#8f9bbd" d="M 1094.5,322.5 C 1100.01,321.184 1105.68,321.184 1111.5,322.5C 1111.38,323.107 1111.04,323.44 1110.5,323.5C 1105.36,322.512 1100.03,322.179 1094.5,322.5 Z"/></g>
<g><path style="opacity:1" fill="#294081" d="M 1151.5,320.5 C 1178.13,319.966 1193.46,332.799 1197.5,359C 1193.93,386.57 1178.26,399.57 1150.5,398C 1127.69,390.906 1117.53,375.406 1120,351.5C 1124.7,335.241 1135.2,324.908 1151.5,320.5 Z"/></g>
<g><path style="opacity:1" fill="#fbfbfc" d="M 717.5,322.5 C 721.273,322.263 724.94,322.763 728.5,324C 730.275,327.394 729.608,330.06 726.5,332C 723.518,332.498 720.518,332.665 717.5,332.5C 717.5,329.167 717.5,325.833 717.5,322.5 Z"/></g>
<g><path style="opacity:1" fill="#283f81" d="M 1064.5,322.5 C 1069.23,331.634 1074.23,340.634 1079.5,349.5C 1084.77,340.634 1089.77,331.634 1094.5,322.5C 1100.03,322.179 1105.36,322.512 1110.5,323.5C 1102.95,338.936 1095.11,354.27 1087,369.5C 1086.5,378.827 1086.33,388.161 1086.5,397.5C 1081.83,397.5 1077.17,397.5 1072.5,397.5C 1072.67,388.161 1072.5,378.827 1072,369.5C 1063.9,354.296 1056.06,338.963 1048.5,323.5C 1053.64,322.512 1058.97,322.179 1064.5,322.5 Z"/></g>
<g><path style="opacity:1" fill="#263e80" d="M 1209.5,322.5 C 1228.17,322.5 1246.83,322.5 1265.5,322.5C 1265.5,327.167 1265.5,331.833 1265.5,336.5C 1258.65,336.176 1251.98,336.509 1245.5,337.5C 1245.5,357.5 1245.5,377.5 1245.5,397.5C 1240.5,397.5 1235.5,397.5 1230.5,397.5C 1230.5,377.5 1230.5,357.5 1230.5,337.5C 1223.5,337.5 1216.5,337.5 1209.5,337.5C 1209.5,332.5 1209.5,327.5 1209.5,322.5 Z"/></g>
<g><path style="opacity:1" fill="#7180ab" d="M 1209.5,322.5 C 1228.33,321.503 1247.33,321.17 1266.5,321.5C 1266.5,326.833 1266.5,332.167 1266.5,337.5C 1259.5,337.5 1252.5,337.5 1245.5,337.5C 1251.98,336.509 1258.65,336.176 1265.5,336.5C 1265.5,331.833 1265.5,327.167 1265.5,322.5C 1246.83,322.5 1228.17,322.5 1209.5,322.5 Z"/></g>
<g><path style="opacity:1" fill="#263e80" d="M 1283.5,322.5 C 1302.17,322.5 1320.83,322.5 1339.5,322.5C 1339.5,327.167 1339.5,331.833 1339.5,336.5C 1332.65,336.176 1325.98,336.509 1319.5,337.5C 1319.5,357.5 1319.5,377.5 1319.5,397.5C 1314.5,397.5 1309.5,397.5 1304.5,397.5C 1304.5,377.5 1304.5,357.5 1304.5,337.5C 1297.5,337.5 1290.5,337.5 1283.5,337.5C 1283.5,332.5 1283.5,327.5 1283.5,322.5 Z"/></g>
<g><path style="opacity:1" fill="#7180ab" d="M 1283.5,322.5 C 1302.33,321.503 1321.33,321.17 1340.5,321.5C 1340.5,326.833 1340.5,332.167 1340.5,337.5C 1333.5,337.5 1326.5,337.5 1319.5,337.5C 1325.98,336.509 1332.65,336.176 1339.5,336.5C 1339.5,331.833 1339.5,327.167 1339.5,322.5C 1320.83,322.5 1302.17,322.5 1283.5,322.5 Z"/></g>
<g><path style="opacity:1" fill="#284081" d="M 1382.5,322.5 C 1384.29,322.215 1385.95,322.548 1387.5,323.5C 1399.04,348.076 1410.71,372.576 1422.5,397C 1416.8,397.83 1411.14,397.663 1405.5,396.5C 1398.32,381.469 1391.15,366.469 1384,351.5C 1376.5,366.5 1369,381.5 1361.5,396.5C 1355.86,397.663 1350.2,397.83 1344.5,397C 1357.05,372.062 1369.72,347.229 1382.5,322.5 Z"/></g>
<g><path style="opacity:1" fill="#3e5e91" d="M 725.5,315.5 C 719.833,315.5 714.167,315.5 708.5,315.5C 708.5,330.167 708.5,344.833 708.5,359.5C 707.504,344.676 707.171,329.676 707.5,314.5C 713.69,314.177 719.69,314.51 725.5,315.5 Z"/></g>
<g><path style="opacity:1" fill="#fbfcfd" d="M 1151.5,336.5 C 1165.91,334.445 1175.75,340.112 1181,353.5C 1182.45,373.378 1173.29,383.212 1153.5,383C 1139.63,378.418 1133.47,368.918 1135,354.5C 1137.62,345.719 1143.12,339.719 1151.5,336.5 Z"/></g>
<g><path style="opacity:1" fill="#8196b7" d="M 725.5,340.5 C 722.833,340.5 720.167,340.5 717.5,340.5C 717.5,344.167 717.5,347.833 717.5,351.5C 716.517,347.702 716.183,343.702 716.5,339.5C 719.713,339.19 722.713,339.523 725.5,340.5 Z"/></g>
<g><path style="opacity:1" fill="#fbfcfd" d="M 725.5,340.5 C 727.39,340.297 728.89,340.963 730,342.5C 730.755,345.303 730.422,347.97 729,350.5C 725.27,351.46 721.437,351.793 717.5,351.5C 717.5,347.833 717.5,344.167 717.5,340.5C 720.167,340.5 722.833,340.5 725.5,340.5 Z"/></g>
</svg>
