<svg xmlns="http://www.w3.org/2000/svg" xmlns:xlink="http://www.w3.org/1999/xlink" fill="none" version="1.1" width="200" height="72" viewBox="0 0 200 72"><g><g><path d="M47.65501878662109,71.99828651123048C40.81332878662109,71.99828651123048,39.378318786621094,68.83998651123046,39.378318786621094,66.19078651123047L39.378318786621094,58.13607651123047C39.378318786621094,55.52225651123047,40.79165878662109,52.40648651123047,47.528348786621095,52.40648651123047L57.27671878662109,52.40648651123047C58.5484187866211,52.40648651123047,59.36801878662109,53.15107351123047,59.36801878662109,54.302766511230466C59.36801878662109,55.45439651123047,58.546818786621095,56.198986511230466,57.27671878662109,56.198986511230466L47.5783187866211,56.198986511230466C43.764988786621096,56.198986511230466,43.764988786621096,57.64399651123047,43.764988786621096,58.18879651123047L43.764988786621096,66.11428651123047C43.764988786621096,66.68628651123046,43.764988786621096,68.20738651123047,47.78167878662109,68.20738651123047L57.27511878662109,68.20738651123047C58.546818786621095,68.20738651123047,59.3669187866211,68.95228651123047,59.3669187866211,70.10368651123046C59.3669187866211,71.25568651123046,58.54511878662109,71.99998651123047,57.27511878662109,71.99998651123047L47.65333878662109,71.99998651123047L47.65501878662109,71.99828651123048Z" fill="#F29E43" fill-opacity="1" style="mix-blend-mode:passthrough"/></g><g><path d="M71.8268919140625,71.99831405639648C64.9848819140625,71.99831405639648,63.5484619140625,68.78391405639648,63.5484619140625,66.08711405639649L63.5484619140625,54.19754405639648C63.5484619140625,53.26808505639649,64.1182089140625,52.275814056396484,65.7165319140625,52.275814056396484C67.3148519140625,52.275814056396484,67.9367019140625,53.26808505639649,67.9367019140625,54.19754405639648L67.9367019140625,66.00941405639648C67.9367019140625,66.60981405639649,67.9367019140625,68.20561405639648,71.9535019140625,68.20561405639648L82.4918619140625,68.20561405639648C84.0347619140625,68.20561405639648,84.5848619140625,69.18581405639648,84.5848619140625,70.10201405639648C84.5848619140625,71.01811405639648,84.0347619140625,71.99831405639648,82.4918619140625,71.99831405639648L71.8268919140625,71.99831405639648Z" fill="#F29E43" fill-opacity="1" style="mix-blend-mode:passthrough"/></g><g><path d="M95.7848768383789,71.99777780151368C88.94342683837891,71.99777780151368,87.5064468383789,68.83947780151367,87.5064468383789,66.19027780151367L87.5064468383789,58.18653780151367C87.5064468383789,55.54884780151367,88.9198868383789,52.40427780151367,95.65657683837891,52.40427780151367L101.3333468383789,52.40427780151367C108.07004683837891,52.40427780151367,109.48344683837891,55.54884780151367,109.48344683837891,58.18653780151367L109.48344683837891,66.19027780151367C109.48344683837891,68.83947780151367,108.0465468383789,71.99777780151368,101.2050468383789,71.99777780151368L95.7831968383789,71.99777780151368L95.7848768383789,71.99777780151368ZM95.7081268383789,56.19677780151367C91.8969168383789,56.19677780151367,91.8969168383789,57.67914780151367,91.8969168383789,58.23698780151367L91.8969168383789,66.11197780151367C91.8969168383789,66.68407780151367,91.8969168383789,68.20507780151367,95.76022683837891,68.20507780151367L101.2319468383789,68.20507780151367C105.0952468383789,68.20507780151367,105.0952468383789,66.68577780151367,105.0952468383789,66.11197780151367L105.0952468383789,58.23698780151367C105.0952468383789,57.67914780151367,105.0952468383789,56.19677780151367,101.28174683837891,56.19677780151367L95.70644683837891,56.19677780151367L95.7081268383789,56.19677780151367Z" fill="#F29E43" fill-opacity="1" style="mix-blend-mode:passthrough"/></g><g><path d="M121.34174871582032,71.99831405639648C114.49972871582031,71.99831405639648,113.06330871582031,68.78391405639648,113.06330871582031,66.08711405639649L113.06330871582031,54.19754405639648C113.06330871582031,53.74639405639648,113.22185471582031,52.275814056396484,115.25826871582031,52.275814056396484C117.29523871582032,52.275814056396484,117.45322871582032,53.74639405639648,117.45322871582032,54.19754405639648L117.45322871582032,66.00941405639648C117.45322871582032,66.60981405639649,117.45322871582032,68.20561405639648,121.47003871582031,68.20561405639648L127.01850871582032,68.20561405639648C131.0101087158203,68.20561405639648,131.0101087158203,66.60981405639649,131.0101087158203,66.00941405639648L131.0101087158203,54.19754405639648C131.0101087158203,53.26808505639649,131.5933087158203,52.275814056396484,133.2302087158203,52.275814056396484C135.2667087158203,52.275814056396484,135.4252087158203,53.74639405639648,135.4252087158203,54.19754405639648L135.4252087158203,66.08711405639649C135.4252087158203,68.78391405639648,133.98820871582032,71.99831405639648,127.14680871582031,71.99831405639648L121.34342871582031,71.99831405639648L121.34174871582032,71.99831405639648Z" fill="#F29E43" fill-opacity="1" style="mix-blend-mode:passthrough"/></g><g><path d="M140.68516270019532,71.99828651123048C139.1798417001953,71.99828651123048,138.6431427001953,71.09918651123047,138.6431427001953,70.25788651123047L138.6431427001953,54.146696511230466C138.6431427001953,53.30544551123047,139.16695070019531,52.40648651123047,140.6336227001953,52.40648651123047L152.5966427001953,52.40648651123047C159.8168427001953,52.40648651123047,161.33164270019532,55.578216511230465,161.33164270019532,58.239256511230465L161.33164270019532,66.16528651123048C161.33164270019532,68.82638651123047,159.8168427001953,71.99828651123048,152.5966427001953,71.99828651123048L140.68516270019532,71.99828651123048ZM152.67504270019532,68.20558651123046C156.9451427001953,68.20558651123046,156.9451427001953,66.61148651123047,156.9451427001953,66.08708651123047L156.9451427001953,58.31748651123047C156.9451427001953,57.793096511230466,156.9451427001953,56.198986511230466,152.7002427001953,56.198986511230466L143.0336227001953,56.198986511230466L143.0336227001953,68.20738651123047L152.67504270019532,68.20738651123047L152.67504270019532,68.20558651123046Z" fill="#F29E43" fill-opacity="1" style="mix-blend-mode:passthrough"/></g><g><path d="M193.5882378955078,0Q191.69860789550782,8.0345,187.1764678955078,9.06572Q193.5882378955078,11.5726,193.5882378955078,16.5863Q193.5882378955078,11.5726,199.9999678955078,9.06572Q195.47842789550782,8.0362,193.5882378955078,0Z" fill="#F29E43" fill-opacity="1" style="mix-blend-mode:passthrough"/></g><g><path d="M0,47.32056418609619L0,46.48606418609619C0,42.39836418609619,3.26833,39.072364186096195,7.28499,39.072364186096195L26.7783,39.072364186096195C29.53,39.072364186096195,29.8166,38.42616418609619,29.8166,36.94876418609619L29.8166,35.06106418609619C29.8166,33.61926418609619,29.355,32.88666418609619,26.8283,32.88666418609619L10.5417,32.88666418609619C2.99167,32.88836418609619,0.05,30.18126418609619,0.05,23.23066418609619L0.05,21.497264186096192C0.05,13.949474186096191,3.09,10.871064186096191,10.5417,10.871064186096191L37.91,10.871064186096191L37.91,11.705564186096192C37.91,15.79319418609619,34.6417,19.119234186096193,30.625,19.119234186096193L11.2433,19.119234186096193C9.33333,19.119234186096193,8.65501,19.51783418609619,8.65501,21.75326418609619L8.65501,22.87616418609619C8.65501,24.48066418609619,9.03832,25.050564186096192,11.1933,25.050564186096192L27.18,25.050564186096192C35.1667,25.050564186096192,38.4233,27.849164186096193,38.4233,34.70826418609619L38.4233,37.46266418609619C38.4233,44.465964186096194,35.1667,47.32396418609619,27.18,47.32396418609619L0,47.32396418609619L0,47.32056418609619Z" fill="#FFFFFF" fill-opacity="1" style="mix-blend-mode:passthrough"/></g><g><path d="M93.07503587646484,47.3212315612793C85.64482587646485,47.3212315612793,82.33333587646484,44.814331561279296,82.33333587646484,39.1934315612793L82.33333587646484,36.593231561279296C82.33333587646484,30.896031561279298,85.39664587646485,28.465431561279296,92.57483587646485,28.465431561279296L111.84823587646484,28.465431561279296C111.81013587646484,25.756801561279296,111.02693587646485,25.085121561279298,108.05993587646485,25.085121561279298L105.95523587646484,25.085121561279298C102.57483587646485,25.085121561279298,99.82353587646485,22.286541561279297,99.82353587646485,18.845131561279295L99.82353587646485,18.010631561279297L108.05993587646485,18.010631561279297C116.97983587646485,18.010631561279297,120.95683587646485,21.413031561279297,120.95683587646485,29.045531561279297L120.95683587646485,35.7774315612793C120.95683587646485,44.408931561279296,117.62693587646484,47.3212315612793,107.75853587646485,47.3212315612793L93.07503587646484,47.3212315612793ZM93.37483587646484,34.8276315612793C91.85322587646485,34.8276315612793,91.38824587646485,35.2872315612793,91.38824587646485,36.7985315612793L91.38824587646485,38.6845315612793C91.38824587646485,39.6581315612793,92.16638587646484,40.451931561279295,93.12493587646485,40.451931561279295L107.65823587646484,40.451931561279295C110.85493587646485,40.451931561279295,111.84983587646485,39.8854315612793,111.84983587646485,36.33883156127929L111.84983587646485,34.8276315612793L93.37643587646484,34.8276315612793L93.37483587646484,34.8276315612793Z" fill="#FFFFFF" fill-opacity="1" style="mix-blend-mode:passthrough"/></g><g><path d="M167.76527340332032,47.320995556640625L167.76527340332032,25.849895556640625L163.9568634033203,25.849895556640625L163.9568634033203,18.010515556640627L167.76527340332032,18.010515556640627L167.76527340332032,10.206695556640625L177.0218634033203,10.206695556640625L177.0218634033203,18.010515556640627L185.58996340332033,18.010515556640627L185.58996340332033,18.845015556640625C185.58996340332033,22.707095556640624,182.5013634033203,25.849895556640625,178.7064634033203,25.849895556640625L177.0218634033203,25.849895556640625L177.0218634033203,47.320995556640625L167.76527340332032,47.320995556640625Z" fill="#FFFFFF" fill-opacity="1" style="mix-blend-mode:passthrough"/></g><g><path d="M197.2515497705078,47.32265439147949C192.59999977050782,47.32265439147949,188.8151397705078,43.37575439147949,188.8151397705078,38.524854391479494L188.8151397705078,18.023954391479492L198.0717297705078,18.023954391479492L198.0717297705078,47.32265439147949L197.2515497705078,47.32265439147949Z" fill="#FFFFFF" fill-opacity="1" style="mix-blend-mode:passthrough"/></g><g><path d="M151.4151001098633,47.3215C149.73330010986328,47.3215,148.08850010986328,46.7279,146.7832001098633,45.6475L134.13166010986328,35.1842L134.13166010986328,38.8376C134.13166010986328,43.5155,130.39160010986328,47.3215,125.79497110986328,47.3215L124.97480010986328,47.3215L124.97480010986328,9.91037L125.40337110986329,9.67294C129.60841010986329,7.34757,131.0784401098633,4.95434,132.3748001098633,2.84099L134.13166010986328,0L134.13166010986328,29.9076L146.6953001098633,19.6546C147.99330010986327,18.5945,149.62520010986327,18.0127,151.2885001098633,18.0127L161.11490010986327,18.0127L143.14850010986328,32.1735L161.4785001098633,47.3232L151.4118001098633,47.3232L151.4151001098633,47.3215Z" fill="#FFFFFF" fill-opacity="1" style="mix-blend-mode:passthrough"/></g><g><path d="M78.04148319702148,47.321857696843146C73.47168319702149,47.321857696843146,69.75518319702148,43.53955769684315,69.75518319702148,38.88875769684315L69.75518319702148,31.086657696843147C69.75518319702148,26.983757696843146,68.95348319702148,26.208657696843147,64.71148319702148,26.208657696843147L50.648353197021486,26.208657696843147L50.648353197021486,38.88875769684315C50.648353197021486,43.53955769684315,46.93165319702148,47.321857696843146,42.361683197021485,47.321857696843146L41.541683197021484,47.321857696843146L41.541683197021484,0.14615769684314728L43.07165319702148,2.8463676968431475C44.66835319702148,5.6619176968431475,46.29501319702148,7.7650976968431475,50.316643197021484,10.804457696843148L50.648353197021486,11.053857696843147L50.648353197021486,18.01135769684315L64.91318319702148,18.01135769684315C75.34338319702148,18.01135769684315,78.86328319702147,21.245757696843146,78.86328319702147,30.830557696843147L78.86328319702147,47.321857696843146L78.04318319702148,47.321857696843146L78.04148319702148,47.321857696843146Z" fill="#FFFFFF" fill-opacity="1" style="mix-blend-mode:passthrough"/></g></g></svg>