<?xml version="1.0" encoding="UTF-8"?>
<!DOCTYPE svg PUBLIC "-//W3C//DTD SVG 1.1//EN" "http://www.w3.org/Graphics/SVG/1.1/DTD/svg11.dtd">
<svg xmlns="http://www.w3.org/2000/svg" version="1.1" width="532px" height="272px" style="shape-rendering:geometricPrecision; text-rendering:geometricPrecision; image-rendering:optimizeQuality; fill-rule:evenodd; clip-rule:evenodd" xmlns:xlink="http://www.w3.org/1999/xlink">
<g><path style="opacity:0.333" fill="#785021" d="M 201.5,17.5 C 201.167,17.5 200.833,17.5 200.5,17.5C 180.331,15.5509 159.998,14.8842 139.5,15.5C 159.569,14.8278 179.736,14.1611 200,13.5C 200.791,14.745 201.291,16.0783 201.5,17.5 Z"/></g>
<g><path style="opacity:1" fill="#e79940" d="M 139.5,15.5 C 159.998,14.8842 180.331,15.5509 200.5,17.5C 200.5,18.1667 200.833,18.5 201.5,18.5C 204.315,19.9562 205.315,22.1229 204.5,25C 205.253,26.487 206.086,26.6537 207,25.5C 207.791,26.745 208.291,28.0783 208.5,29.5C 207.167,29.8333 207.167,30.1667 208.5,30.5C 210.807,31.7633 212.141,33.7633 212.5,36.5C 211.167,36.8333 211.167,37.1667 212.5,37.5C 214.807,38.7633 216.141,40.7633 216.5,43.5C 215.167,43.8333 215.167,44.1667 216.5,44.5C 219.315,45.9562 220.315,48.1229 219.5,51C 220.253,52.487 221.086,52.6537 222,51.5C 222.791,52.745 223.291,54.0783 223.5,55.5C 222.167,55.8333 222.167,56.1667 223.5,56.5C 225.807,57.7633 227.141,59.7633 227.5,62.5C 226.167,62.8333 226.167,63.1667 227.5,63.5C 227.918,64.2216 228.584,64.7216 229.5,65C 228.748,65.6708 228.414,66.5041 228.5,67.5C 227.167,67.8333 227.167,68.1667 228.5,68.5C 228.34,70.153 227.674,71.4863 226.5,72.5C 226.167,71.1667 225.833,71.1667 225.5,72.5C 224.167,72.8333 224.167,73.1667 225.5,73.5C 225.34,75.153 224.674,76.4863 223.5,77.5C 223.167,76.1667 222.833,76.1667 222.5,77.5C 221.662,77.8417 221.328,78.5084 221.5,79.5C 220.167,79.8333 220.167,80.1667 221.5,80.5C 221.34,82.153 220.674,83.4863 219.5,84.5C 219.167,83.1667 218.833,83.1667 218.5,84.5C 217.662,84.8417 217.328,85.5084 217.5,86.5C 216.167,86.8333 216.167,87.1667 217.5,87.5C 217.34,89.153 216.674,90.4863 215.5,91.5C 215.167,90.1667 214.833,90.1667 214.5,91.5C 213.662,91.8417 213.328,92.5084 213.5,93.5C 212.167,93.8333 212.167,94.1667 213.5,94.5C 213.34,96.153 212.674,97.4863 211.5,98.5C 211.167,97.1667 210.833,97.1667 210.5,98.5C 209.167,98.8333 209.167,99.1667 210.5,99.5C 210.34,101.153 209.674,102.486 208.5,103.5C 208.167,102.167 207.833,102.167 207.5,103.5C 206.662,103.842 206.328,104.508 206.5,105.5C 205.167,105.833 205.167,106.167 206.5,106.5C 206.34,108.153 205.674,109.486 204.5,110.5C 204.167,109.167 203.833,109.167 203.5,110.5C 202.662,110.842 202.328,111.508 202.5,112.5C 201.167,112.833 201.167,113.167 202.5,113.5C 202.34,115.153 201.674,116.486 200.5,117.5C 200.167,116.167 199.833,116.167 199.5,117.5C 179.5,118.833 159.5,118.833 139.5,117.5C 139.5,116.833 139.167,116.5 138.5,116.5C 138.167,115.167 137.833,115.167 137.5,116.5C 136.662,116.158 136.328,115.492 136.5,114.5C 137.833,114.167 137.833,113.833 136.5,113.5C 136.672,112.508 136.338,111.842 135.5,111.5C 135.167,110.167 134.833,110.167 134.5,111.5C 132.78,110.249 132.447,108.749 133.5,107C 130.967,105.967 129.301,104.133 128.5,101.5C 128.709,100.914 129.043,100.414 129.5,100C 126.967,98.9667 125.301,97.1334 124.5,94.5C 125.855,93.3247 125.688,92.3247 124,91.5C 123.667,91.8333 123.333,92.1667 123,92.5C 122.209,91.255 121.709,89.9217 121.5,88.5C 122.833,88.1667 122.833,87.8333 121.5,87.5C 121.672,86.5084 121.338,85.8417 120.5,85.5C 120.167,84.1667 119.833,84.1667 119.5,85.5C 117.78,84.2493 117.447,82.7493 118.5,81C 115.967,79.9667 114.301,78.1334 113.5,75.5C 113.709,74.914 114.043,74.414 114.5,74C 108.681,70.2139 108.015,66.2139 112.5,62C 111.465,60.4931 111.632,58.9931 113,57.5C 113.667,58.8333 114.333,58.8333 115,57.5C 116.294,56.1456 116.46,54.8123 115.5,53.5C 116.34,52.265 117.34,51.265 118.5,50.5C 119.267,49.828 119.934,48.9947 120.5,48C 119.549,47.2825 119.383,46.4491 120,45.5C 121.255,44.7894 122.421,43.956 123.5,43C 122.465,41.4931 122.632,39.9931 124,38.5C 125.255,37.7894 126.421,36.956 127.5,36C 126.465,34.4931 126.632,32.9931 128,31.5C 128.333,31.8333 128.667,32.1667 129,32.5C 130.788,30.9956 131.288,29.3289 130.5,27.5C 131,26.5 131.5,25.5 132,24.5C 132.333,24.8333 132.667,25.1667 133,25.5C 134.941,23.6841 135.608,21.6841 135,19.5C 136.255,18.7894 137.421,17.956 138.5,17C 137.16,14.8215 137.493,14.3215 139.5,15.5 Z M 178.5,40.5 C 179.833,40.8333 181.167,41.1667 182.5,41.5C 181.167,41.8333 181.167,42.1667 182.5,42.5C 182.842,43.3382 183.508,43.6716 184.5,43.5C 184.5,44.1667 184.833,44.5 185.5,44.5C 185.973,45.9063 186.973,46.573 188.5,46.5C 188.5,47.1667 188.833,47.5 189.5,47.5C 189.427,49.0269 190.094,50.0269 191.5,50.5C 191.5,51.1667 191.833,51.5 192.5,51.5C 192.328,52.4916 192.662,53.1583 193.5,53.5C 195.184,54.4956 196.184,56.1623 196.5,58.5C 196.291,59.086 195.957,59.586 195.5,60C 197.045,61.8219 197.712,63.9886 197.5,66.5C 196.939,71.4828 195.939,75.4828 194.5,78.5C 194.672,79.4916 194.338,80.1583 193.5,80.5C 193.167,79.1667 192.833,79.1667 192.5,80.5C 191.662,80.8417 191.328,81.5084 191.5,82.5C 189.167,84.1667 187.167,86.1667 185.5,88.5C 184.508,88.3284 183.842,88.6618 183.5,89.5C 182.833,89.5 182.5,89.8333 182.5,90.5C 181.761,90.369 181.094,90.5357 180.5,91C 181.696,91.6543 181.696,92.1543 180.5,92.5C 179.549,91.6744 178.549,91.5078 177.5,92C 178.34,93.6665 177.84,93.8331 176,92.5C 174.004,94.0591 171.671,94.7258 169,94.5C 166.329,94.7258 163.996,94.0591 162,92.5C 160.16,93.8331 159.66,93.6665 160.5,92C 159.551,91.3828 158.718,91.5494 158,92.5C 157.722,91.5842 157.222,90.9175 156.5,90.5C 156.158,89.6618 155.492,89.3284 154.5,89.5C 154.5,88.8333 154.167,88.5 153.5,88.5C 153.158,87.6618 152.492,87.3284 151.5,87.5C 150.833,86.1667 149.833,85.1667 148.5,84.5C 148.573,82.9731 147.906,81.9731 146.5,81.5C 146.068,80.2905 145.401,79.2905 144.5,78.5C 144.423,77.2502 143.756,76.4169 142.5,76C 142.957,75.586 143.291,75.086 143.5,74.5C 141.525,73.2507 141.191,71.7507 142.5,70C 140.006,67.5769 140.006,65.2436 142.5,63C 141.446,61.6124 141.28,60.1124 142,58.5C 142.654,59.6956 143.154,59.6956 143.5,58.5C 143.167,57.8333 142.833,57.1667 142.5,56.5C 142.846,55.3044 143.346,55.3044 144,56.5C 144.464,55.9056 144.631,55.2389 144.5,54.5C 145.338,54.1583 145.672,53.4916 145.5,52.5C 146.906,52.0269 147.573,51.0269 147.5,49.5C 149.5,48.1667 151.167,46.5 152.5,44.5C 154.027,44.573 155.027,43.9063 155.5,42.5C 156.492,42.6716 157.158,42.3382 157.5,41.5C 158.031,40.2046 159.364,39.5379 161.5,39.5C 166.316,38.3503 171.316,38.1837 176.5,39C 176.167,39.3333 175.833,39.6667 175.5,40C 176.448,40.4828 177.448,40.6495 178.5,40.5 Z"/></g>
<g><path style="opacity:0.012" fill="#000000" d="M 201.5,17.5 C 202.833,18.1667 202.833,18.1667 201.5,17.5 Z"/></g>
<g><path style="opacity:0.012" fill="#000000" d="M 208.5,29.5 C 209.833,30.1667 209.833,30.1667 208.5,29.5 Z"/></g>
<g><path style="opacity:0.012" fill="#000000" d="M 212.5,36.5 C 213.833,37.1667 213.833,37.1667 212.5,36.5 Z"/></g>
<g><path style="opacity:0.009" fill="#191919" d="M 155.5,42.5 C 155.027,43.9063 154.027,44.573 152.5,44.5C 152.821,42.9519 153.821,42.2852 155.5,42.5 Z"/></g>
<g><path style="opacity:0.012" fill="#000000" d="M 216.5,43.5 C 217.833,44.1667 217.833,44.1667 216.5,43.5 Z"/></g>
<g><path style="opacity:0.008" fill="#000000" d="M 185.5,44.5 C 187.179,44.2852 188.179,44.9519 188.5,46.5C 186.973,46.573 185.973,45.9063 185.5,44.5 Z"/></g>
<g><path style="opacity:0.007" fill="#000000" d="M 189.5,47.5 C 189.833,47.5 190.167,47.5 190.5,47.5C 191.11,48.391 191.443,49.391 191.5,50.5C 190.094,50.0269 189.427,49.0269 189.5,47.5 Z"/></g>
<g><path style="opacity:0.016" fill="#000000" d="M 118.5,50.5 C 117.833,49.1667 117.833,49.1667 118.5,50.5 Z"/></g>
<g><path style="opacity:0.008" fill="#000000" d="M 146.5,49.5 C 146.833,49.5 147.167,49.5 147.5,49.5C 147.573,51.0269 146.906,52.0269 145.5,52.5C 145.5,51.8333 145.5,51.1667 145.5,50.5C 146.167,50.5 146.5,50.1667 146.5,49.5 Z"/></g>
<g><path style="opacity:0.012" fill="#000000" d="M 223.5,55.5 C 224.833,56.1667 224.833,56.1667 223.5,55.5 Z"/></g>
<g><path style="opacity:0.012" fill="#000000" d="M 227.5,62.5 C 228.833,63.1667 228.833,63.1667 227.5,62.5 Z"/></g>
<g><path style="opacity:0.012" fill="#000000" d="M 228.5,67.5 C 229.833,68.1667 229.833,68.1667 228.5,67.5 Z"/></g>
<g><path style="opacity:0.537" fill="#9a672b" d="M 102.5,72.5 C 102.167,72.5 101.833,72.5 101.5,72.5C 81.4889,72.167 61.4889,72.5004 41.5,73.5C 41.0345,75.8083 39.7012,77.1416 37.5,77.5C 37.1667,77.5 36.8333,77.5 36.5,77.5C 37.4293,76.6851 38.4293,75.8518 39.5,75C 38.4652,73.4931 38.6319,71.9931 40,70.5C 60.3333,71.8333 80.6667,71.8333 101,70.5C 101.717,71.0442 102.217,71.7109 102.5,72.5 Z"/></g>
<g><path style="opacity:0.016" fill="#000000" d="M 225.5,72.5 C 225.833,72.5 226.167,72.5 226.5,72.5C 226.315,73.1701 225.981,73.1701 225.5,72.5 Z"/></g>
<g><path style="opacity:1" fill="#e79940" d="M 101.5,72.5 C 101.833,73.8333 102.167,73.8333 102.5,72.5C 104.534,74.3651 105.201,76.5318 104.5,79C 105.253,80.487 106.086,80.6537 107,79.5C 107.791,80.745 108.291,82.0783 108.5,83.5C 107.167,83.8333 107.167,84.1667 108.5,84.5C 110.807,85.7633 112.141,87.7633 112.5,90.5C 111.167,90.8333 111.167,91.1667 112.5,91.5C 115.315,92.9562 116.315,95.1229 115.5,98C 116.253,99.487 117.086,99.6537 118,98.5C 118.791,99.745 119.291,101.078 119.5,102.5C 118.167,102.833 118.167,103.167 119.5,103.5C 119.328,104.492 119.662,105.158 120.5,105.5C 120.833,106.833 121.167,106.833 121.5,105.5C 122.674,106.514 123.34,107.847 123.5,109.5C 122.167,109.833 122.167,110.167 123.5,110.5C 124.172,111.267 125.005,111.934 126,112.5C 127.406,114.364 127.906,116.197 127.5,118C 117.756,118.806 108.089,118.639 98.5,117.5C 97.5543,115.868 96.5543,114.201 95.5,112.5C 95.7093,111.914 96.0426,111.414 96.5,111C 93.8758,110.424 93.2092,109.09 94.5,107C 93.6266,105.955 92.6266,105.122 91.5,104.5C 91.5,103.167 90.8333,102.5 89.5,102.5C 88.4755,99.9089 86.8089,99.0756 84.5,100C 85.6039,98.8687 85.2705,98.0354 83.5,97.5C 82.8333,97.8333 82.1667,98.1667 81.5,98.5C 74.6303,93.5578 68.2969,93.2245 62.5,97.5C 61.8333,97.1667 61.1667,96.8333 60.5,96.5C 59.3044,96.8457 59.3044,97.3457 60.5,98C 59.9056,98.4643 59.2389,98.631 58.5,98.5C 58.1667,97.1667 57.8333,97.1667 57.5,98.5C 57.1667,98.5 56.8333,98.5 56.5,98.5C 55.8333,98.5 55.5,98.8333 55.5,99.5C 54.8333,99.5 54.5,99.8333 54.5,100.5C 53.5084,100.328 52.8417,100.662 52.5,101.5C 51.8333,101.5 51.5,101.833 51.5,102.5C 50.8333,102.5 50.5,102.833 50.5,103.5C 49.8333,103.5 49.5,103.833 49.5,104.5C 49.1667,105.167 48.8333,105.833 48.5,106.5C 47.8333,106.5 47.5,106.833 47.5,107.5C 46.1667,107.833 46.1667,108.167 47.5,108.5C 47.2914,109.922 46.7914,111.255 46,112.5C 44.3335,111.66 44.1669,112.16 45.5,114C 44.0267,114.71 43.3601,115.876 43.5,117.5C 43.1667,117.5 42.8333,117.5 42.5,117.5C 33.3178,117.827 24.3178,117.493 15.5,116.5C 16.8512,114.006 17.6845,111.339 18,108.5C 18.6667,109.833 19.3333,109.833 20,108.5C 21.6458,106.945 21.9791,105.279 21,103.5C 22.2547,102.789 23.4214,101.956 24.5,101C 23.4652,99.4931 23.6319,97.9931 25,96.5C 26.2547,95.7894 27.4214,94.956 28.5,94C 28.0426,93.586 27.7093,93.086 27.5,92.5C 28.3006,89.8666 29.9673,88.0333 32.5,87C 31.4652,85.4931 31.6319,83.9931 33,82.5C 33.6667,83.8333 34.3333,83.8333 35,82.5C 36.2051,80.804 36.7051,79.1373 36.5,77.5C 36.8333,78.8333 37.1667,78.8333 37.5,77.5C 39.7012,77.1416 41.0345,75.8083 41.5,73.5C 61.4889,72.5004 81.4889,72.167 101.5,72.5 Z"/></g>
<g><path style="opacity:0.008" fill="#000000" d="M 222.5,77.5 C 222.833,77.5 223.167,77.5 223.5,77.5C 223.672,78.4916 223.338,79.1583 222.5,79.5C 222.5,78.8333 222.5,78.1667 222.5,77.5 Z"/></g>
<g><path style="opacity:0.008" fill="#000000" d="M 144.5,78.5 C 145.401,79.2905 146.068,80.2905 146.5,81.5C 144.952,81.1788 144.285,80.1788 144.5,78.5 Z"/></g>
<g><path style="opacity:0.016" fill="#000000" d="M 221.5,79.5 C 221.833,79.5 222.167,79.5 222.5,79.5C 222.315,80.1701 221.981,80.1701 221.5,79.5 Z"/></g>
<g><path style="opacity:0.008" fill="#110f01" d="M 146.5,81.5 C 147.906,81.9731 148.573,82.9731 148.5,84.5C 146.952,84.1788 146.285,83.1788 146.5,81.5 Z"/></g>
<g><path style="opacity:0.012" fill="#000000" d="M 108.5,83.5 C 109.833,84.1667 109.833,84.1667 108.5,83.5 Z"/></g>
<g><path style="opacity:0.016" fill="#000000" d="M 218.5,84.5 C 218.833,84.5 219.167,84.5 219.5,84.5C 219.315,85.1701 218.981,85.1701 218.5,84.5 Z"/></g>
<g><path style="opacity:0.01" fill="#000000" d="M 119.5,85.5 C 119.833,85.5 120.167,85.5 120.5,85.5C 121.338,85.8417 121.672,86.5084 121.5,87.5C 121.5,87.8333 121.5,88.1667 121.5,88.5C 120.599,87.7095 119.932,86.7095 119.5,85.5 Z"/></g>
<g><path style="opacity:0.012" fill="#000000" d="M 217.5,86.5 C 218.833,87.1667 218.833,87.1667 217.5,86.5 Z"/></g>
<g><path style="opacity:0.012" fill="#000000" d="M 112.5,90.5 C 113.833,91.1667 113.833,91.1667 112.5,90.5 Z"/></g>
<g><path style="opacity:0.016" fill="#000000" d="M 214.5,91.5 C 214.833,91.5 215.167,91.5 215.5,91.5C 215.315,92.1701 214.981,92.1701 214.5,91.5 Z"/></g>
<g><path style="opacity:0.012" fill="#000000" d="M 213.5,93.5 C 214.833,94.1667 214.833,94.1667 213.5,93.5 Z"/></g>
<g><path style="opacity:0.009" fill="#000000" d="M 56.5,98.5 C 56.8333,98.5 57.1667,98.5 57.5,98.5C 57.8333,98.5 58.1667,98.5 58.5,98.5C 58.0269,99.9063 57.0269,100.573 55.5,100.5C 55.5,100.167 55.5,99.8333 55.5,99.5C 56.1667,99.5 56.5,99.1667 56.5,98.5 Z"/></g>
<g><path style="opacity:0.016" fill="#000000" d="M 210.5,98.5 C 210.833,98.5 211.167,98.5 211.5,98.5C 211.315,99.1701 210.981,99.1701 210.5,98.5 Z"/></g>
<g><path style="opacity:0.007" fill="#181109" d="M 54.5,100.5 C 54.8333,100.5 55.1667,100.5 55.5,100.5C 55.0269,101.906 54.0269,102.573 52.5,102.5C 52.5,102.167 52.5,101.833 52.5,101.5C 52.8417,100.662 53.5084,100.328 54.5,100.5 Z"/></g>
<g><path style="opacity:0.016" fill="#000000" d="M 51.5,102.5 C 51.8333,102.5 52.1667,102.5 52.5,102.5C 52.3147,103.17 51.9813,103.17 51.5,102.5 Z"/></g>
<g><path style="opacity:0.006" fill="#16110b" d="M 89.5,102.5 C 90.8333,102.5 91.5,103.167 91.5,104.5C 91.5654,104.938 91.3988,105.272 91,105.5C 90.1667,104.667 89.3333,103.833 88.5,103C 88.7284,102.601 89.0618,102.435 89.5,102.5 Z"/></g>
<g><path style="opacity:0.008" fill="#000000" d="M 119.5,102.5 C 120.401,103.29 121.068,104.29 121.5,105.5C 121.167,105.5 120.833,105.5 120.5,105.5C 119.662,105.158 119.328,104.492 119.5,103.5C 119.5,103.167 119.5,102.833 119.5,102.5 Z"/></g>
<g><path style="opacity:0.016" fill="#000000" d="M 50.5,103.5 C 50.8333,103.5 51.1667,103.5 51.5,103.5C 51.3147,104.17 50.9813,104.17 50.5,103.5 Z"/></g>
<g><path style="opacity:0.008" fill="#000000" d="M 207.5,103.5 C 207.833,103.5 208.167,103.5 208.5,103.5C 208.672,104.492 208.338,105.158 207.5,105.5C 207.5,104.833 207.5,104.167 207.5,103.5 Z"/></g>
<g><path style="opacity:0.006" fill="#000000" d="M 49.5,104.5 C 49.8333,104.5 50.1667,104.5 50.5,104.5C 50.573,106.027 49.9063,107.027 48.5,107.5C 48.5,107.167 48.5,106.833 48.5,106.5C 48.8333,105.833 49.1667,105.167 49.5,104.5 Z"/></g>
<g><path style="opacity:0.016" fill="#000000" d="M 206.5,105.5 C 206.833,105.5 207.167,105.5 207.5,105.5C 207.315,106.17 206.981,106.17 206.5,105.5 Z"/></g>
<g><path style="opacity:0.016" fill="#000000" d="M 47.5,107.5 C 47.8333,107.5 48.1667,107.5 48.5,107.5C 48.3147,108.17 47.9813,108.17 47.5,107.5 Z"/></g>
<g><path style="opacity:0.012" fill="#000000" d="M 123.5,109.5 C 124.833,110.167 124.833,110.167 123.5,109.5 Z"/></g>
<g><path style="opacity:0.012" fill="#000000" d="M 203.5,110.5 C 203.833,110.5 204.167,110.5 204.5,110.5C 204.315,111.17 203.981,111.17 203.5,110.5 Z"/></g>
<g><path style="opacity:0.009" fill="#000000" d="M 134.5,111.5 C 134.833,111.5 135.167,111.5 135.5,111.5C 136.338,111.842 136.672,112.508 136.5,113.5C 136.5,113.833 136.5,114.167 136.5,114.5C 135.599,113.71 134.932,112.71 134.5,111.5 Z"/></g>
<g><path style="opacity:0.016" fill="#000000" d="M 202.5,112.5 C 203.833,113.167 203.833,113.167 202.5,112.5 Z"/></g>
<g><path style="opacity:0.173" fill="#161e41" d="M 244.5,128.5 C 243.512,123.36 243.179,118.026 243.5,112.5C 235.5,112.5 227.5,112.5 219.5,112.5C 219.821,118.026 219.488,123.36 218.5,128.5C 218.334,122.491 218.501,116.491 219,110.5C 227.834,111.624 236.667,111.791 245.5,111C 244.525,116.741 244.192,122.575 244.5,128.5 Z"/></g>
<g><path style="opacity:0.999" fill="#dd943f" d="M 82.5,126.5 C 82.1667,127.833 81.8333,129.167 81.5,130.5C 81.1667,129.167 80.8333,129.167 80.5,130.5C 79.8333,130.5 79.5,130.833 79.5,131.5C 78.8333,131.5 78.5,131.833 78.5,132.5C 77.1667,132.833 77.1667,133.167 78.5,133.5C 77.2493,135.22 75.7493,135.553 74,134.5C 72,135.167 70,135.833 68,136.5C 67.6758,134.431 66.8425,134.098 65.5,135.5C 64.5,135 63.5,134.5 62.5,134C 63.2583,132.636 62.7583,131.469 61,130.5C 60.6667,130.833 60.3333,131.167 60,131.5C 58.5708,127.435 58.4042,123.101 59.5,118.5C 61.866,116.22 63.5326,113.887 64.5,111.5C 68.1985,111.177 72.1985,111.177 76.5,111.5C 77.5,114.5 79.5,116.5 82.5,117.5C 83.0322,119.914 83.0322,122.914 82.5,126.5 Z"/></g>
<g><path style="opacity:0.01" fill="#181207" d="M 137.5,116.5 C 137.833,116.5 138.167,116.5 138.5,116.5C 139.167,116.5 139.5,116.833 139.5,117.5C 138.377,118.757 137.711,118.424 137.5,116.5 Z"/></g>
<g><path style="opacity:0.004" fill="#080501" d="M 15.5,116.5 C 24.3178,117.493 33.3178,117.827 42.5,117.5C 33.0089,118.658 23.3422,118.825 13.5,118C 14.0442,117.283 14.7109,116.783 15.5,116.5 Z"/></g>
<g><path style="opacity:0.004" fill="#000000" d="M 43.5,117.5 C 44.8333,118.167 44.8333,118.167 43.5,117.5 Z"/></g>
<g><path style="opacity:0.008" fill="#000000" d="M 59.5,118.5 C 58.8333,117.167 58.8333,117.167 59.5,118.5 Z"/></g>
<g><path style="opacity:0.02" fill="#000000" d="M 98.5,117.5 C 97.8333,118.167 97.8333,118.167 98.5,117.5 Z"/></g>
<g><path style="opacity:0.02" fill="#000000" d="M 199.5,117.5 C 199.833,117.5 200.167,117.5 200.5,117.5C 200.315,118.17 199.981,118.17 199.5,117.5 Z"/></g>
<g><path style="opacity:0.004" fill="#000000" d="M 82.5,126.5 C 83.8333,127.167 83.8333,127.167 82.5,126.5 Z"/></g>
<g><path style="opacity:0.024" fill="#000000" d="M 277.5,127.5 C 278.833,128.167 278.833,128.167 277.5,127.5 Z"/></g>
<g><path style="opacity:1" fill="#263a79" d="M 244.5,128.5 C 255.5,128.5 266.5,128.5 277.5,128.5C 277.414,129.496 277.748,130.329 278.5,131C 276.311,131.677 275.978,132.844 277.5,134.5C 276.833,134.833 276.167,135.167 275.5,135.5C 275.833,136.167 276.167,136.833 276.5,137.5C 276.154,138.696 275.654,138.696 275,137.5C 274.51,138.793 274.343,140.127 274.5,141.5C 274.167,142.833 273.833,144.167 273.5,145.5C 273.167,144.167 272.833,144.167 272.5,145.5C 271.833,145.5 271.5,145.833 271.5,146.5C 270.833,146.5 270.5,146.833 270.5,147.5C 269.833,147.5 269.5,147.833 269.5,148.5C 268.778,148.918 268.278,149.584 268,150.5C 260.402,149.173 252.902,149.173 245.5,150.5C 244.173,166.338 244.173,182.338 245.5,198.5C 247.27,199.82 247.603,201.32 246.5,203C 248,204.5 249.5,206 251,207.5C 252.68,206.397 254.18,206.73 255.5,208.5C 263.754,209.323 271.254,209.323 278,208.5C 277.586,214.748 277.419,221.081 277.5,227.5C 276.833,227.5 276.5,227.833 276.5,228.5C 275.833,228.5 275.5,228.833 275.5,229.5C 264.912,231.724 254.245,232.057 243.5,230.5C 242.687,229.347 241.687,229.347 240.5,230.5C 239.304,230.154 239.304,229.654 240.5,229C 239.906,228.536 239.239,228.369 238.5,228.5C 238.158,227.662 237.492,227.328 236.5,227.5C 236.158,226.662 235.492,226.328 234.5,226.5C 234.167,225.167 233.833,225.167 233.5,226.5C 231.937,224.404 229.771,222.07 227,219.5C 226.333,220.833 225.667,220.833 225,219.5C 223.833,217.167 222.667,214.833 221.5,212.5C 222.902,211.158 222.569,210.324 220.5,210C 220.754,207.856 220.754,205.856 220.5,204C 220.095,203.055 219.428,202.388 218.5,202C 219.779,199.502 219.779,197.002 218.5,194.5C 219.833,179.833 219.833,165.167 218.5,150.5C 213.36,149.512 208.026,149.179 202.5,149.5C 202.461,148.417 202.127,147.417 201.5,146.5C 202.629,144.725 203.629,143.058 204.5,141.5C 204.167,140.833 203.833,140.167 203.5,139.5C 204.167,139.167 204.833,138.833 205.5,138.5C 205.167,137.833 204.833,137.167 204.5,136.5C 206.839,134.86 207.672,132.86 207,130.5C 208.242,129.128 209.742,128.128 211.5,127.5C 213.747,128.374 216.08,128.708 218.5,128.5C 219.488,123.36 219.821,118.026 219.5,112.5C 227.5,112.5 235.5,112.5 243.5,112.5C 243.179,118.026 243.512,123.36 244.5,128.5 Z"/></g>
<g><path style="opacity:1" fill="#fefffe" d="M 220.5,113.5 C 227.833,113.5 235.167,113.5 242.5,113.5C 242.5,119.167 242.5,124.833 242.5,130.5C 253.167,130.5 263.833,130.5 274.5,130.5C 274.001,136.843 271.668,142.343 267.5,147C 259.833,147.333 252.167,147.667 244.5,148C 244,148.5 243.5,149 243,149.5C 242.333,165.5 242.333,181.5 243,197.5C 243.934,204.436 247.767,208.936 254.5,211C 261.518,211.565 268.518,211.399 275.5,210.5C 275.666,215.844 275.499,221.177 275,226.5C 273.174,228.074 271.007,228.907 268.5,229C 241.887,233.93 225.887,223.596 220.5,198C 220.957,197.586 221.291,197.086 221.5,196.5C 220.681,180.544 220.181,164.544 220,148.5C 214.917,147.693 209.75,147.193 204.5,147C 206.242,142.537 207.908,138.037 209.5,133.5C 212.613,130.808 216.279,129.808 220.5,130.5C 220.5,124.833 220.5,119.167 220.5,113.5 Z"/></g>
<g><path style="opacity:1" fill="#233471" d="M 418.5,133.5 C 417.167,133.833 417.167,134.167 418.5,134.5C 420.103,135.596 421.603,136.93 423,138.5C 423.914,137.346 424.747,137.513 425.5,139C 424.742,140.364 425.242,141.531 427,142.5C 428.107,141.288 428.607,141.621 428.5,143.5C 427.167,143.833 427.167,144.167 428.5,144.5C 428.918,145.222 429.584,145.722 430.5,146C 429.549,146.718 429.383,147.551 430,148.5C 430.654,147.304 431.154,147.304 431.5,148.5C 429.978,150.156 430.311,151.323 432.5,152C 432.788,178.113 432.455,204.28 431.5,230.5C 430.167,230.833 430.167,231.167 431.5,231.5C 431.44,232.043 431.107,232.376 430.5,232.5C 413.211,231.68 395.877,231.18 378.5,231C 375.776,230.73 373.109,230.23 370.5,229.5C 369.833,229.833 369.167,230.167 368.5,230.5C 367.304,230.154 367.304,229.654 368.5,229C 367.451,228.508 366.451,228.674 365.5,229.5C 363.308,228.73 361.974,227.73 361.5,226.5C 361.167,225.167 360.833,225.167 360.5,226.5C 358.621,226.607 358.288,226.107 359.5,225C 358.531,223.242 357.364,222.742 356,223.5C 354.513,222.747 354.346,221.914 355.5,221C 351.918,219.257 349.252,216.09 347.5,211.5C 347.833,210.833 348.167,210.167 348.5,209.5C 347.833,209.167 347.167,208.833 346.5,208.5C 346.5,200.833 346.5,193.167 346.5,185.5C 347.167,185.167 347.833,184.833 348.5,184.5C 347.339,182.776 347.505,181.11 349,179.5C 349.914,180.654 350.747,180.487 351.5,179C 350.167,177.16 350.334,176.66 352,177.5C 353.833,175.667 355.667,173.833 357.5,172C 356.66,170.334 357.16,170.167 359,171.5C 360.487,170.747 360.654,169.914 359.5,169C 361.833,167.833 364.167,166.667 366.5,165.5C 368.156,167.022 369.323,166.689 370,164.5C 372.349,164.484 374.682,164.484 377,164.5C 378.473,164.097 379.806,163.43 381,162.5C 389.749,163.484 398.582,163.817 407.5,163.5C 407.66,161.801 407.494,160.134 407,158.5C 405.334,159.34 405.167,158.84 406.5,157C 405.747,155.513 404.914,155.346 404,156.5C 403.333,155.167 402.667,153.833 402,152.5C 400.23,153.276 398.397,153.11 396.5,152C 396.833,151.667 397.167,151.333 397.5,151C 382.892,149.568 368.225,149.068 353.5,149.5C 354.535,147.795 354.535,146.128 353.5,144.5C 353.846,143.304 354.346,143.304 355,144.5C 355.492,143.451 355.326,142.451 354.5,141.5C 356.335,140.572 356.668,139.406 355.5,138C 357.689,137.323 358.022,136.156 356.5,134.5C 358.815,132.999 360.981,130.665 363,127.5C 375.758,128.323 388.591,128.823 401.5,129C 403.556,129.311 405.556,129.811 407.5,130.5C 408.906,129.332 410.072,129.665 411,131.5C 412.84,130.167 413.34,130.334 412.5,132C 413.549,132.492 414.549,132.326 415.5,131.5C 416.739,131.942 417.739,132.609 418.5,133.5 Z M 379.5,208.5 C 379.158,207.662 378.492,207.328 377.5,207.5C 377.5,206.833 377.167,206.5 376.5,206.5C 376.167,205.5 375.5,204.833 374.5,204.5C 374.5,203.833 374.167,203.5 373.5,203.5C 373.672,202.508 373.338,201.842 372.5,201.5C 371.892,200.2 371.225,198.867 370.5,197.5C 371.225,196.133 371.892,194.8 372.5,193.5C 373.338,193.158 373.672,192.492 373.5,191.5C 375.167,190.5 376.5,189.167 377.5,187.5C 378.492,187.672 379.158,187.338 379.5,186.5C 381.379,186.607 381.712,186.107 380.5,185C 389.494,184.5 398.494,184.334 407.5,184.5C 407.5,193.167 407.5,201.833 407.5,210.5C 397.974,211.049 388.641,210.382 379.5,208.5 Z"/></g>
<g><path style="opacity:1" fill="#23356d" d="M 526.5,229.5 C 525.833,229.5 525.5,229.833 525.5,230.5C 524.833,230.5 524.5,230.833 524.5,231.5C 507.497,231.667 490.497,231.5 473.5,231C 470.443,230.744 467.443,230.244 464.5,229.5C 463.833,229.833 463.167,230.167 462.5,230.5C 462.167,229.833 461.833,229.167 461.5,228.5C 460.833,228.833 460.167,229.167 459.5,229.5C 457.167,228.333 454.833,227.167 452.5,226C 452.833,225.667 453.167,225.333 453.5,225C 450.301,221.612 447.301,218.778 444.5,216.5C 445.571,214.675 444.904,213.508 442.5,213C 442.165,211.836 442.165,210.503 442.5,209C 441.833,208.667 441.167,208.333 440.5,208C 440.546,200.653 440.546,193.319 440.5,186C 441.756,185.583 442.423,184.75 442.5,183.5C 443.267,182.828 443.934,181.995 444.5,181C 443.167,179.16 443.334,178.66 445,179.5C 446.284,178.428 446.617,177.095 446,175.5C 446.333,175.833 446.667,176.167 447,176.5C 449.326,174.953 450.493,173.119 450.5,171C 452.095,171.617 453.428,171.284 454.5,170C 454.167,169.667 453.833,169.333 453.5,169C 455.591,167.325 457.758,166.825 460,167.5C 460.605,165.519 461.605,165.185 463,166.5C 463.677,164.311 464.844,163.978 466.5,165.5C 467.167,164.833 467.833,164.167 468.5,163.5C 479.405,163.599 490.405,163.599 501.5,163.5C 500.609,157.761 497.276,153.928 491.5,152C 491.833,151.667 492.167,151.333 492.5,151C 477.56,149.64 462.56,149.14 447.5,149.5C 448.833,148.167 448.833,146.833 447.5,145.5C 448.441,145.511 449.108,145.011 449.5,144C 449.355,143.228 449.022,142.561 448.5,142C 450.689,141.323 451.022,140.156 449.5,138.5C 450.167,138.167 450.833,137.833 451.5,137.5C 451.167,136.833 450.833,136.167 450.5,135.5C 451.167,135.167 451.833,134.833 452.5,134.5C 452.167,133.833 451.833,133.167 451.5,132.5C 454.161,131.496 456.161,129.83 457.5,127.5C 470.121,128.314 482.788,128.814 495.5,129C 497.698,129.373 499.865,129.873 502,130.5C 502.772,130.355 503.439,130.022 504,129.5C 504.605,131.481 505.605,131.815 507,130.5C 507.324,132.569 508.158,132.902 509.5,131.5C 511.167,132.333 512.833,133.167 514.5,134C 513.346,134.914 513.513,135.747 515,136.5C 517.399,136.028 519.399,137.028 521,139.5C 520.383,141.095 520.716,142.428 522,143.5C 522.333,143.167 522.667,142.833 523,142.5C 524.807,144.706 525.307,147.039 524.5,149.5C 525.189,151.444 525.689,153.444 526,155.5C 526.5,180.164 526.667,204.831 526.5,229.5 Z M 477.5,184.5 C 485.5,184.5 493.5,184.5 501.5,184.5C 501.5,193.167 501.5,201.833 501.5,210.5C 493.5,210.5 485.5,210.5 477.5,210.5C 474.851,210.091 472.851,209.091 471.5,207.5C 470.5,205.833 469.167,204.5 467.5,203.5C 467.631,202.761 467.464,202.094 467,201.5C 466.346,202.696 465.846,202.696 465.5,201.5C 465.5,198.833 465.5,196.167 465.5,193.5C 465.846,192.304 466.346,192.304 467,193.5C 467.464,192.906 467.631,192.239 467.5,191.5C 468.167,191.5 468.5,191.167 468.5,190.5C 469.5,190.167 470.167,189.5 470.5,188.5C 471.167,188.5 471.5,188.167 471.5,187.5C 472.492,187.672 473.158,187.338 473.5,186.5C 474.031,185.205 475.364,184.538 477.5,184.5 Z"/></g>
<g><path style="opacity:0.016" fill="#000000" d="M 126.5,130.5 C 127.833,131.167 127.833,131.167 126.5,130.5 Z"/></g>
<g><path style="opacity:1" fill="#283d80" d="M 288.5,130.5 C 288.5,163.5 288.5,196.5 288.5,229.5C 295.422,229.812 302.256,229.479 309,228.5C 309.168,202.663 309.668,176.997 310.5,151.5C 311.167,151.5 311.5,151.833 311.5,152.5C 311.176,178.545 311.509,204.545 312.5,230.5C 311.743,232.404 310.743,232.737 309.5,231.5C 302.352,230.508 295.019,230.175 287.5,230.5C 287.167,196.427 287.501,163.093 288.5,130.5 Z"/></g>
<g><path style="opacity:1" fill="#fefffe" d="M 288.5,130.5 C 304.17,130.333 319.837,130.5 335.5,131C 336.667,132.167 337.833,133.333 339,134.5C 340.113,138.508 341.613,142.341 343.5,146C 343.167,146.333 342.833,146.667 342.5,147C 333.256,147.181 324.089,147.681 315,148.5C 314.667,148.167 314.333,147.833 314,147.5C 311.929,148.103 310.762,149.436 310.5,151.5C 309.668,176.997 309.168,202.663 309,228.5C 302.256,229.479 295.422,229.812 288.5,229.5C 288.5,196.5 288.5,163.5 288.5,130.5 Z"/></g>
<g><path style="opacity:1" fill="#fefffe" d="M 364.5,130.5 C 376.876,130.541 389.043,130.541 401,130.5C 416.222,132.366 426.055,140.866 430.5,156C 430.638,180.02 430.471,204.187 430,228.5C 412.201,229.479 394.535,229.812 377,229.5C 362.994,227.163 353.494,219.329 348.5,206C 345.699,184.162 355.199,170.662 377,165.5C 387.683,165.566 398.517,165.566 409.5,165.5C 409.257,154.093 403.591,148.259 392.5,148C 380.486,147.833 368.486,147.333 356.5,146.5C 357.564,142.808 358.731,139.141 360,135.5C 361.025,133.313 362.525,131.646 364.5,130.5 Z M 379.5,208.5 C 379.158,207.662 378.492,207.328 377.5,207.5C 377.5,206.833 377.167,206.5 376.5,206.5C 376.167,205.5 375.5,204.833 374.5,204.5C 374.5,203.833 374.167,203.5 373.5,203.5C 373.672,202.508 373.338,201.842 372.5,201.5C 371.892,200.2 371.225,198.867 370.5,197.5C 371.225,196.133 371.892,194.8 372.5,193.5C 373.338,193.158 373.672,192.492 373.5,191.5C 375.167,190.5 376.5,189.167 377.5,187.5C 378.492,187.672 379.158,187.338 379.5,186.5C 381.379,186.607 381.712,186.107 380.5,185C 389.494,184.5 398.494,184.334 407.5,184.5C 407.5,193.167 407.5,201.833 407.5,210.5C 397.974,211.049 388.641,210.382 379.5,208.5 Z"/></g>
<g><path style="opacity:1" fill="#fefffe" d="M 458.5,130.5 C 470.838,130.333 483.171,130.5 495.5,131C 503.827,132.072 511.327,135.572 518,141.5C 521.09,145.682 523.09,150.349 524,155.5C 524.667,179.833 524.667,204.167 524,228.5C 504.539,229.916 485.039,229.75 465.5,228C 453.121,224.289 445.621,216.122 443,203.5C 440.809,184.361 448.976,172.194 467.5,167C 479.453,165.635 491.453,165.135 503.5,165.5C 503.935,154.004 498.268,148.171 486.5,148C 474.486,147.833 462.486,147.333 450.5,146.5C 451.967,142.931 453.134,139.264 454,135.5C 455.025,133.313 456.525,131.646 458.5,130.5 Z M 477.5,184.5 C 485.5,184.5 493.5,184.5 501.5,184.5C 501.5,193.167 501.5,201.833 501.5,210.5C 493.5,210.5 485.5,210.5 477.5,210.5C 474.851,210.091 472.851,209.091 471.5,207.5C 470.5,205.833 469.167,204.5 467.5,203.5C 467.631,202.761 467.464,202.094 467,201.5C 466.346,202.696 465.846,202.696 465.5,201.5C 465.5,198.833 465.5,196.167 465.5,193.5C 465.846,192.304 466.346,192.304 467,193.5C 467.464,192.906 467.631,192.239 467.5,191.5C 468.167,191.5 468.5,191.167 468.5,190.5C 469.5,190.167 470.167,189.5 470.5,188.5C 471.167,188.5 471.5,188.167 471.5,187.5C 472.492,187.672 473.158,187.338 473.5,186.5C 474.031,185.205 475.364,184.538 477.5,184.5 Z"/></g>
<g><path style="opacity:0.738" fill="#21326a" d="M 345.5,149.5 C 335.161,149.334 324.828,149.5 314.5,150C 315.258,151.364 314.758,152.531 313,153.5C 312.617,152.944 312.117,152.611 311.5,152.5C 311.5,151.833 311.167,151.5 310.5,151.5C 310.762,149.436 311.929,148.103 314,147.5C 314.333,147.833 314.667,148.167 315,148.5C 324.089,147.681 333.256,147.181 342.5,147C 342.833,146.667 343.167,146.333 343.5,146C 341.613,142.341 340.113,138.508 339,134.5C 337.833,133.333 336.667,132.167 335.5,131C 319.837,130.5 304.17,130.333 288.5,130.5C 287.501,163.093 287.167,196.427 287.5,230.5C 295.019,230.175 302.352,230.508 309.5,231.5C 302.109,231.201 294.776,231.535 287.5,232.5C 286.713,231.758 286.047,230.925 285.5,230C 286.831,196.53 286.831,163.03 285.5,129.5C 285.833,128.5 286.5,127.833 287.5,127.5C 303.696,128.828 319.863,128.828 336,127.5C 336.419,128.672 337.085,129.672 338,130.5C 338.893,129.289 339.726,129.289 340.5,130.5C 339.145,131.675 339.312,132.675 341,133.5C 341.654,132.304 342.154,132.304 342.5,133.5C 340.978,135.156 341.311,136.323 343.5,137C 343.694,138.763 343.694,140.597 343.5,142.5C 343.846,143.696 344.346,143.696 345,142.5C 345.492,143.549 345.326,144.549 344.5,145.5C 345.025,146.192 345.692,146.692 346.5,147C 345.748,147.671 345.414,148.504 345.5,149.5 Z"/></g>
<g><path style="opacity:0.012" fill="#000000" d="M 418.5,133.5 C 419.833,134.167 419.833,134.167 418.5,133.5 Z"/></g>
<g><path style="opacity:0.012" fill="#000000" d="M 123.5,135.5 C 123.833,135.5 124.167,135.5 124.5,135.5C 124.315,136.17 123.981,136.17 123.5,135.5 Z"/></g>
<g><path style="opacity:0.012" fill="#000000" d="M 122.5,137.5 C 123.833,138.167 123.833,138.167 122.5,137.5 Z"/></g>
<g><path style="opacity:0.004" fill="#000000" d="M 274.5,141.5 C 275.833,142.167 275.833,142.167 274.5,141.5 Z"/></g>
<g><path style="opacity:0.016" fill="#000000" d="M 119.5,142.5 C 119.833,142.5 120.167,142.5 120.5,142.5C 120.315,143.17 119.981,143.17 119.5,142.5 Z"/></g>
<g><path style="opacity:0.012" fill="#000000" d="M 428.5,143.5 C 429.833,144.167 429.833,144.167 428.5,143.5 Z"/></g>
<g><path style="opacity:0.012" fill="#000000" d="M 118.5,144.5 C 119.833,145.167 119.833,145.167 118.5,144.5 Z"/></g>
<g><path style="opacity:0.016" fill="#000000" d="M 272.5,145.5 C 272.833,145.5 273.167,145.5 273.5,145.5C 273.315,146.17 272.981,146.17 272.5,145.5 Z"/></g>
<g><path style="opacity:0.009" fill="#000000" d="M 271.5,146.5 C 271.833,146.5 272.167,146.5 272.5,146.5C 272.5,147.833 271.833,148.5 270.5,148.5C 270.5,148.167 270.5,147.833 270.5,147.5C 271.167,147.5 271.5,147.167 271.5,146.5 Z"/></g>
<g><path style="opacity:0.016" fill="#000000" d="M 269.5,148.5 C 269.833,148.5 270.167,148.5 270.5,148.5C 270.315,149.17 269.981,149.17 269.5,148.5 Z"/></g>
<g><path style="opacity:0.012" fill="#000000" d="M 115.5,149.5 C 115.833,149.5 116.167,149.5 116.5,149.5C 116.315,150.17 115.981,150.17 115.5,149.5 Z"/></g>
<g><path style="opacity:0.016" fill="#000000" d="M 202.5,149.5 C 201.833,150.167 201.833,150.167 202.5,149.5 Z"/></g>
<g><path style="opacity:0.012" fill="#000000" d="M 345.5,149.5 C 346.833,150.167 346.833,150.167 345.5,149.5 Z"/></g>
<g><path style="opacity:0.008" fill="#000000" d="M 353.5,149.5 C 352.833,150.167 352.833,150.167 353.5,149.5 Z"/></g>
<g><path style="opacity:0.004" fill="#000000" d="M 245.5,150.5 C 246.833,151.167 246.833,151.167 245.5,150.5 Z"/></g>
<g><path style="opacity:0.051" fill="#111325" d="M 218.5,150.5 C 219.833,165.167 219.833,179.833 218.5,194.5C 218.456,179.586 218.456,164.92 218.5,150.5 Z"/></g>
<g><path style="opacity:0.012" fill="#000000" d="M 123.5,155.5 C 122.833,154.167 122.833,154.167 123.5,155.5 Z"/></g>
<g><path style="opacity:0.012" fill="#000000" d="M 111.5,156.5 C 111.833,156.5 112.167,156.5 112.5,156.5C 112.315,157.17 111.981,157.17 111.5,156.5 Z"/></g>
<g><path style="opacity:0.012" fill="#000000" d="M 108.5,161.5 C 108.833,161.5 109.167,161.5 109.5,161.5C 109.315,162.17 108.981,162.17 108.5,161.5 Z"/></g>
<g><path style="opacity:0.012" fill="#000000" d="M 107.5,163.5 C 108.833,164.167 108.833,164.167 107.5,163.5 Z"/></g>
<g><path style="opacity:0.012" fill="#000000" d="M 104.5,168.5 C 104.833,168.5 105.167,168.5 105.5,168.5C 105.315,169.17 104.981,169.17 104.5,168.5 Z"/></g>
<g><path style="opacity:0.012" fill="#000000" d="M 103.5,170.5 C 104.833,171.167 104.833,171.167 103.5,170.5 Z"/></g>
<g><path style="opacity:0.016" fill="#000000" d="M 100.5,175.5 C 100.833,175.5 101.167,175.5 101.5,175.5C 101.315,176.17 100.981,176.17 100.5,175.5 Z"/></g>
<g><path style="opacity:0.012" fill="#000000" d="M 99.5,177.5 C 100.833,178.167 100.833,178.167 99.5,177.5 Z"/></g>
<g><path style="opacity:1" fill="#243871" d="M 198.5,230.5 C 197.833,230.5 197.5,230.833 197.5,231.5C 190.167,231.5 182.833,231.5 175.5,231.5C 175.217,230.711 174.717,230.044 174,229.5C 173.667,208.5 173.333,187.5 173,166.5C 171.742,163.4 170.242,160.4 168.5,157.5C 168.709,156.914 169.043,156.414 169.5,156C 168.333,154.833 167.167,153.667 166,152.5C 164.493,153.535 162.993,153.368 161.5,152C 161.833,151.667 162.167,151.333 162.5,151C 161.207,150.51 159.873,150.343 158.5,150.5C 151.167,149.167 143.833,149.167 136.5,150.5C 135.502,176.328 135.169,202.328 135.5,228.5C 135.5,229.167 135.5,229.833 135.5,230.5C 134.833,230.5 134.5,230.833 134.5,231.5C 127.167,231.5 119.833,231.5 112.5,231.5C 112.217,230.711 111.717,230.044 111,229.5C 110.529,211.461 110.362,193.628 110.5,176C 112.904,175.492 113.571,174.325 112.5,172.5C 113.301,169.867 114.967,168.033 117.5,167C 116.465,165.493 116.632,163.993 118,162.5C 118.667,163.833 119.333,163.833 120,162.5C 121.294,161.146 121.46,159.812 120.5,158.5C 121.34,157.265 122.34,156.265 123.5,155.5C 124.267,154.828 124.934,153.995 125.5,153C 124.549,152.282 124.383,151.449 125,150.5C 126.255,149.789 127.421,148.956 128.5,148C 127.465,146.493 127.632,144.993 129,143.5C 130.255,142.789 131.421,141.956 132.5,141C 131.465,139.493 131.632,137.993 133,136.5C 133.333,136.833 133.667,137.167 134,137.5C 135.788,135.996 136.288,134.329 135.5,132.5C 136,131.5 136.5,130.5 137,129.5C 137.914,130.654 138.747,130.487 139.5,129C 150.454,128.591 161.287,128.424 172,128.5C 172.677,130.689 173.844,131.022 175.5,129.5C 177.43,130.552 178.93,131.886 180,133.5C 180.414,133.043 180.914,132.709 181.5,132.5C 184.113,135.634 187.28,138.967 191,142.5C 192.666,141.66 192.833,142.16 191.5,144C 192.253,145.487 193.086,145.654 194,144.5C 195.368,145.993 195.535,147.493 194.5,149C 196.569,149.324 196.902,150.158 195.5,151.5C 196.167,151.833 196.833,152.167 197.5,152.5C 195.978,154.156 196.311,155.323 198.5,156C 199.706,180.772 199.706,205.605 198.5,230.5 Z"/></g>
<g><path style="opacity:1" fill="#fefffe" d="M 140.5,130.5 C 150.889,130.13 161.223,130.63 171.5,132C 183.877,136.032 191.544,144.032 194.5,156C 195.811,159.354 196.644,162.854 197,166.5C 197.826,187.406 197.66,208.24 196.5,229C 189.586,229.811 182.752,229.645 176,228.5C 175.667,207.833 175.333,187.167 175,166.5C 174.642,158.668 170.808,152.835 163.5,149C 153.97,147.33 144.47,147.164 135,148.5C 134.667,175.167 134.333,201.833 134,228.5C 127,229.833 120,229.833 113,228.5C 112.333,211.833 112.333,195.167 113,178.5C 122.431,162.636 131.598,146.636 140.5,130.5 Z"/></g>
<g><path style="opacity:0.016" fill="#02003b" d="M 136.5,150.5 C 137.043,150.56 137.376,150.893 137.5,151.5C 136.842,177.294 136.175,202.961 135.5,228.5C 135.169,202.328 135.502,176.328 136.5,150.5 Z"/></g>
<g><path style="opacity:0.004" fill="#000000" d="M 158.5,150.5 C 157.833,151.167 157.833,151.167 158.5,150.5 Z"/></g>
<g><path style="opacity:0.012" fill="#000000" d="M 96.5,182.5 C 96.8333,182.5 97.1667,182.5 97.5,182.5C 97.3147,183.17 96.9813,183.17 96.5,182.5 Z"/></g>
<g><path style="opacity:0.012" fill="#000000" d="M 442.5,183.5 C 441.833,182.167 441.833,182.167 442.5,183.5 Z"/></g>
<g><path style="opacity:1" fill="#243773" d="M 381.5,182.5 C 390.833,182.5 400.167,182.5 409.5,182.5C 409.5,192.5 409.5,202.5 409.5,212.5C 400.161,212.666 390.827,212.5 381.5,212C 370.768,209.036 366.935,202.202 370,191.5C 372.291,186.448 376.124,183.448 381.5,182.5 Z M 379.5,208.5 C 379.158,207.662 378.492,207.328 377.5,207.5C 377.5,206.833 377.167,206.5 376.5,206.5C 376.167,205.5 375.5,204.833 374.5,204.5C 374.5,203.833 374.167,203.5 373.5,203.5C 373.672,202.508 373.338,201.842 372.5,201.5C 371.892,200.2 371.225,198.867 370.5,197.5C 371.225,196.133 371.892,194.8 372.5,193.5C 373.338,193.158 373.672,192.492 373.5,191.5C 375.167,190.5 376.5,189.167 377.5,187.5C 378.492,187.672 379.158,187.338 379.5,186.5C 381.379,186.607 381.712,186.107 380.5,185C 389.494,184.5 398.494,184.334 407.5,184.5C 407.5,193.167 407.5,201.833 407.5,210.5C 397.974,211.049 388.641,210.382 379.5,208.5 Z"/></g>
<g><path style="opacity:0.006" fill="#0d0d12" d="M 377.5,187.5 C 376.5,189.167 375.167,190.5 373.5,191.5C 373.5,190.833 373.167,190.5 372.5,190.5C 373.67,188.721 375.336,187.721 377.5,187.5 Z"/></g>
<g><path style="opacity:0.012" fill="#000000" d="M 92.5,189.5 C 92.8333,189.5 93.1667,189.5 93.5,189.5C 93.3147,190.17 92.9813,190.17 92.5,189.5 Z"/></g>
<g><path style="opacity:1" fill="#243267" d="M 52.5,142.5 C 51.1667,142.833 51.1667,143.167 52.5,143.5C 54.8075,144.763 56.1408,146.763 56.5,149.5C 55.1667,149.833 55.1667,150.167 56.5,150.5C 59.3152,151.956 60.3152,154.123 59.5,157C 60.2529,158.487 61.0862,158.654 62,157.5C 63.6747,159.591 64.1747,161.758 63.5,164C 64.2529,165.487 65.0862,165.654 66,164.5C 66.7914,165.745 67.2914,167.078 67.5,168.5C 66.1667,168.833 66.1667,169.167 67.5,169.5C 68.9352,170.509 69.7685,171.843 70,173.5C 71.2812,173.619 72.4479,173.119 73.5,172C 72.4652,170.493 72.6319,168.993 74,167.5C 74.6667,168.833 75.3333,168.833 76,167.5C 77.6458,165.945 77.9791,164.279 77,162.5C 78.2547,161.789 79.4214,160.956 80.5,160C 79.4652,158.493 79.6319,156.993 81,155.5C 82.2547,154.789 83.4214,153.956 84.5,153C 83.4652,151.493 83.6319,149.993 85,148.5C 86.2547,147.789 87.4214,146.956 88.5,146C 87.4652,144.493 87.6319,142.993 89,141.5C 89.6667,142.833 90.3333,142.833 91,141.5C 92.2937,140.146 92.4604,138.812 91.5,137.5C 92,136.5 92.5,135.5 93,134.5C 93.6667,135.833 94.3333,135.833 95,134.5C 96.2937,133.146 96.4604,131.812 95.5,130.5C 96.1449,129.354 96.9783,128.354 98,127.5C 107.667,128.833 117.333,128.833 127,127.5C 127.47,128.577 127.303,129.577 126.5,130.5C 125.167,130.833 125.167,131.167 126.5,131.5C 126.34,133.153 125.674,134.486 124.5,135.5C 124.167,134.167 123.833,134.167 123.5,135.5C 122.662,135.842 122.328,136.508 122.5,137.5C 121.167,137.833 121.167,138.167 122.5,138.5C 122.34,140.153 121.674,141.486 120.5,142.5C 120.167,141.167 119.833,141.167 119.5,142.5C 118.662,142.842 118.328,143.508 118.5,144.5C 117.167,144.833 117.167,145.167 118.5,145.5C 118.34,147.153 117.674,148.486 116.5,149.5C 116.167,148.167 115.833,148.167 115.5,149.5C 114.167,149.833 114.167,150.167 115.5,150.5C 115.008,152.819 114.008,154.819 112.5,156.5C 112.167,155.167 111.833,155.167 111.5,156.5C 110.167,156.833 110.167,157.167 111.5,157.5C 111.34,159.153 110.674,160.486 109.5,161.5C 109.167,160.167 108.833,160.167 108.5,161.5C 107.662,161.842 107.328,162.508 107.5,163.5C 106.167,163.833 106.167,164.167 107.5,164.5C 107.34,166.153 106.674,167.486 105.5,168.5C 105.167,167.167 104.833,167.167 104.5,168.5C 103.662,168.842 103.328,169.508 103.5,170.5C 102.167,170.833 102.167,171.167 103.5,171.5C 103.34,173.153 102.674,174.486 101.5,175.5C 101.167,174.167 100.833,174.167 100.5,175.5C 99.6618,175.842 99.3284,176.508 99.5,177.5C 98.1667,177.833 98.1667,178.167 99.5,178.5C 99.3404,180.153 98.6737,181.486 97.5,182.5C 97.1667,181.167 96.8333,181.167 96.5,182.5C 95.1667,182.833 95.1667,183.167 96.5,183.5C 96.0075,185.819 95.0075,187.819 93.5,189.5C 93.1667,188.167 92.8333,188.167 92.5,189.5C 91.1667,189.833 91.1667,190.167 92.5,190.5C 92.3404,192.153 91.6737,193.486 90.5,194.5C 90.1667,193.167 89.8333,193.167 89.5,194.5C 88.6618,194.842 88.3284,195.508 88.5,196.5C 87.1667,196.833 87.1667,197.167 88.5,197.5C 88.3404,199.153 87.6737,200.486 86.5,201.5C 86.1667,200.167 85.8333,200.167 85.5,201.5C 84.6618,201.842 84.3284,202.508 84.5,203.5C 83.1667,203.833 83.1667,204.167 84.5,204.5C 84.3404,206.153 83.6737,207.486 82.5,208.5C 82.1667,207.167 81.8333,207.167 81.5,208.5C 80.1667,208.833 80.1667,209.167 81.5,209.5C 81.0075,211.819 80.0075,213.819 78.5,215.5C 78.1667,214.167 77.8333,214.167 77.5,215.5C 76.1667,215.833 76.1667,216.167 77.5,216.5C 77.3404,218.153 76.6737,219.486 75.5,220.5C 75.1667,219.167 74.8333,219.167 74.5,220.5C 73.6618,220.842 73.3284,221.508 73.5,222.5C 72.1667,222.833 72.1667,223.167 73.5,223.5C 73.3404,225.153 72.6737,226.486 71.5,227.5C 71.1667,226.167 70.8333,226.167 70.5,227.5C 69.6618,227.842 69.3284,228.508 69.5,229.5C 68.1667,229.833 68.1667,230.167 69.5,230.5C 69.3404,232.153 68.6737,233.486 67.5,234.5C 67.1667,233.167 66.8333,233.167 66.5,234.5C 65.6618,234.842 65.3284,235.508 65.5,236.5C 64.1667,236.833 64.1667,237.167 65.5,237.5C 65.3404,239.153 64.6737,240.486 63.5,241.5C 63.1667,240.167 62.8333,240.167 62.5,241.5C 61.1667,241.833 61.1667,242.167 62.5,242.5C 62.0075,244.819 61.0075,246.819 59.5,248.5C 59.1667,247.167 58.8333,247.167 58.5,248.5C 57.1667,248.833 57.1667,249.167 58.5,249.5C 58.3404,251.153 57.6737,252.486 56.5,253.5C 56.1667,252.167 55.8333,252.167 55.5,253.5C 54.6618,253.842 54.3284,254.508 54.5,255.5C 53.1667,255.833 53.1667,256.167 54.5,256.5C 54.5,258.5 53.5,259.5 51.5,259.5C 51.1667,258.167 50.8333,258.167 50.5,259.5C 42.2476,259.184 34.081,259.518 26,260.5C 25.3076,259.975 24.8076,259.308 24.5,258.5C 25.7468,256.958 25.7468,255.458 24.5,254C 25.4158,253.722 26.0825,253.222 26.5,252.5C 27.2674,251.828 27.9341,250.995 28.5,250C 27.5494,249.282 27.3828,248.449 28,247.5C 29.2547,246.789 30.4214,245.956 31.5,245C 30.4652,243.493 30.6319,241.993 32,240.5C 33.2547,239.789 34.4214,238.956 35.5,238C 34.4652,236.493 34.6319,234.993 36,233.5C 36.3333,233.833 36.6667,234.167 37,234.5C 38.7878,232.996 39.2878,231.329 38.5,229.5C 39,228.5 39.5,227.5 40,226.5C 40.6667,227.833 41.3333,227.833 42,226.5C 43.6458,224.945 43.9791,223.279 43,221.5C 44.2547,220.789 45.4214,219.956 46.5,219C 45.4652,217.493 45.6319,215.993 47,214.5C 48.2547,213.789 49.4214,212.956 50.5,212C 49.4652,210.493 49.6319,208.993 51,207.5C 52.2547,206.789 53.4214,205.956 54.5,205C 53.4267,203.75 53.4267,202.416 54.5,201C 53.3802,199.263 52.3802,197.429 51.5,195.5C 51.7093,194.914 52.0426,194.414 52.5,194C 49.9673,192.967 48.3006,191.133 47.5,188.5C 47.7093,187.914 48.0426,187.414 48.5,187C 45.9673,185.967 44.3006,184.133 43.5,181.5C 43.7093,180.914 44.0426,180.414 44.5,180C 41.9673,178.967 40.3006,177.133 39.5,174.5C 40.8549,173.325 40.6883,172.325 39,171.5C 38.6667,171.833 38.3333,172.167 38,172.5C 36.6319,171.007 36.4652,169.507 37.5,168C 34.9673,166.967 33.3006,165.133 32.5,162.5C 32.7093,161.914 33.0426,161.414 33.5,161C 30.9673,159.967 29.3006,158.133 28.5,155.5C 28.7093,154.914 29.0426,154.414 29.5,154C 26.9673,152.967 25.3006,151.133 24.5,148.5C 25.8549,147.325 25.6883,146.325 24,145.5C 23.6667,145.833 23.3333,146.167 23,146.5C 21.4205,143.006 19.5872,139.673 17.5,136.5C 17.7093,135.914 18.0426,135.414 18.5,135C 17.4214,134.044 16.2547,133.211 15,132.5C 14.3828,131.551 14.5494,130.718 15.5,130C 14.8333,129.333 14.1667,128.667 13.5,128C 23.6664,128.131 33.833,128.631 44,129.5C 45.6665,128.66 45.8331,129.16 44.5,131C 45.2529,132.487 46.0862,132.654 47,131.5C 48.8599,135.22 50.6932,138.886 52.5,142.5 Z"/></g>
<g><path style="opacity:1" fill="#fefffe" d="M 18.5,130.5 C 26.5277,130.169 34.5277,130.502 42.5,131.5C 51.0408,146.083 59.7075,160.583 68.5,175C 71.025,175.896 73.1917,175.396 75,173.5C 83.0403,159.252 91.207,145.085 99.5,131C 107.5,130.333 115.5,130.333 123.5,131C 99.6263,172.582 75.6263,214.082 51.5,255.5C 50.9747,256.192 50.3081,256.692 49.5,257C 42.1742,257.5 34.8409,257.666 27.5,257.5C 37.5493,238.405 47.8827,219.405 58.5,200.5C 44.7112,177.39 31.3779,154.057 18.5,130.5 Z"/></g>
<g><path style="opacity:0.012" fill="#000000" d="M 67.5,168.5 C 68.8333,169.167 68.8333,169.167 67.5,168.5 Z"/></g>
<g><path style="opacity:0.012" fill="#000000" d="M 56.5,149.5 C 57.8333,150.167 57.8333,150.167 56.5,149.5 Z"/></g>
<g><path style="opacity:0.012" fill="#000000" d="M 52.5,142.5 C 53.8333,143.167 53.8333,143.167 52.5,142.5 Z"/></g>
<g><path style="opacity:0.024" fill="#000000" d="M 78.5,132.5 C 78.8333,132.5 79.1667,132.5 79.5,132.5C 79.3147,133.17 78.9813,133.17 78.5,132.5 Z"/></g>
<g><path style="opacity:0.024" fill="#000000" d="M 79.5,131.5 C 79.8333,131.5 80.1667,131.5 80.5,131.5C 80.3147,132.17 79.9813,132.17 79.5,131.5 Z"/></g>
<g><path style="opacity:0.016" fill="#000000" d="M 80.5,130.5 C 80.8333,130.5 81.1667,130.5 81.5,130.5C 81.3147,131.17 80.9813,131.17 80.5,130.5 Z"/></g>
<g><path style="opacity:0.012" fill="#000000" d="M 89.5,194.5 C 89.8333,194.5 90.1667,194.5 90.5,194.5C 90.3147,195.17 89.9813,195.17 89.5,194.5 Z"/></g>
<g><path style="opacity:0.012" fill="#000000" d="M 88.5,196.5 C 89.8333,197.167 89.8333,197.167 88.5,196.5 Z"/></g>
<g><path style="opacity:0.016" fill="#000000" d="M 85.5,201.5 C 85.8333,201.5 86.1667,201.5 86.5,201.5C 86.3147,202.17 85.9813,202.17 85.5,201.5 Z"/></g>
<g><path style="opacity:0.012" fill="#000000" d="M 84.5,203.5 C 85.8333,204.167 85.8333,204.167 84.5,203.5 Z"/></g>
<g><path style="opacity:1" fill="#263976" d="M 475.5,182.5 C 484.833,182.5 494.167,182.5 503.5,182.5C 503.5,192.5 503.5,202.5 503.5,212.5C 493.79,212.447 484.29,212.447 475,212.5C 464.767,209.036 461.1,202.036 464,191.5C 466.593,186.721 470.427,183.721 475.5,182.5 Z M 477.5,184.5 C 485.5,184.5 493.5,184.5 501.5,184.5C 501.5,193.167 501.5,201.833 501.5,210.5C 493.5,210.5 485.5,210.5 477.5,210.5C 474.851,210.091 472.851,209.091 471.5,207.5C 470.5,205.833 469.167,204.5 467.5,203.5C 467.631,202.761 467.464,202.094 467,201.5C 466.346,202.696 465.846,202.696 465.5,201.5C 465.5,198.833 465.5,196.167 465.5,193.5C 465.846,192.304 466.346,192.304 467,193.5C 467.464,192.906 467.631,192.239 467.5,191.5C 468.167,191.5 468.5,191.167 468.5,190.5C 469.5,190.167 470.167,189.5 470.5,188.5C 471.167,188.5 471.5,188.167 471.5,187.5C 472.492,187.672 473.158,187.338 473.5,186.5C 474.031,185.205 475.364,184.538 477.5,184.5 Z"/></g>
<g><path style="opacity:0.204" fill="#121f41" d="M 477.5,184.5 C 485.65,183.507 493.983,183.174 502.5,183.5C 502.5,192.833 502.5,202.167 502.5,211.5C 493.983,211.826 485.65,211.493 477.5,210.5C 485.5,210.5 493.5,210.5 501.5,210.5C 501.5,201.833 501.5,193.167 501.5,184.5C 493.5,184.5 485.5,184.5 477.5,184.5 Z"/></g>
<g><path style="opacity:0.012" fill="#000000" d="M 81.5,208.5 C 81.8333,208.5 82.1667,208.5 82.5,208.5C 82.3147,209.17 81.9813,209.17 81.5,208.5 Z"/></g>
<g><path style="opacity:0.012" fill="#000000" d="M 77.5,215.5 C 77.8333,215.5 78.1667,215.5 78.5,215.5C 78.3147,216.17 77.9813,216.17 77.5,215.5 Z"/></g>
<g><path style="opacity:0.008" fill="#000000" d="M 74.5,220.5 C 74.8333,220.5 75.1667,220.5 75.5,220.5C 75.6716,221.492 75.3382,222.158 74.5,222.5C 74.5,221.833 74.5,221.167 74.5,220.5 Z"/></g>
<g><path style="opacity:0.012" fill="#000000" d="M 73.5,222.5 C 73.8333,222.5 74.1667,222.5 74.5,222.5C 74.3147,223.17 73.9813,223.17 73.5,222.5 Z"/></g>
<g><path style="opacity:0.016" fill="#000000" d="M 233.5,226.5 C 233.833,226.5 234.167,226.5 234.5,226.5C 234.315,227.17 233.981,227.17 233.5,226.5 Z"/></g>
<g><path style="opacity:0.012" fill="#000000" d="M 360.5,226.5 C 360.833,226.5 361.167,226.5 361.5,226.5C 361.315,227.17 360.981,227.17 360.5,226.5 Z"/></g>
<g><path style="opacity:0.012" fill="#000000" d="M 70.5,227.5 C 70.8333,227.5 71.1667,227.5 71.5,227.5C 71.3147,228.17 70.9813,228.17 70.5,227.5 Z"/></g>
<g><path style="opacity:0.012" fill="#000000" d="M 236.5,227.5 C 235.833,228.167 235.833,228.167 236.5,227.5 Z"/></g>
<g><path style="opacity:0.004" fill="#000000" d="M 277.5,227.5 C 278.833,228.167 278.833,228.167 277.5,227.5 Z"/></g>
<g><path style="opacity:0.008" fill="#000000" d="M 238.5,228.5 C 237.833,229.167 237.833,229.167 238.5,228.5 Z"/></g>
<g><path style="opacity:0.009" fill="#000000" d="M 276.5,228.5 C 276.833,228.5 277.167,228.5 277.5,228.5C 277.289,230.424 276.623,230.757 275.5,229.5C 276.167,229.5 276.5,229.167 276.5,228.5 Z"/></g>
<g><path style="opacity:0.012" fill="#000000" d="M 69.5,229.5 C 70.8333,230.167 70.8333,230.167 69.5,229.5 Z"/></g>
<g><path style="opacity:0.004" fill="#000000" d="M 526.5,229.5 C 527.833,230.167 527.833,230.167 526.5,229.5 Z"/></g>
<g><path style="opacity:0.016" fill="#000000" d="M 135.5,230.5 C 136.833,231.167 136.833,231.167 135.5,230.5 Z"/></g>
<g><path style="opacity:0.024" fill="#000000" d="M 198.5,230.5 C 199.833,231.167 199.833,231.167 198.5,230.5 Z"/></g>
<g><path style="opacity:0.004" fill="#000000" d="M 243.5,230.5 C 242.833,231.167 242.833,231.167 243.5,230.5 Z"/></g>
<g><path style="opacity:0.012" fill="#000000" d="M 431.5,230.5 C 432.833,231.167 432.833,231.167 431.5,230.5 Z"/></g>
<g><path style="opacity:0.02" fill="#000000" d="M 525.5,230.5 C 525.833,230.5 526.167,230.5 526.5,230.5C 526.315,231.17 525.981,231.17 525.5,230.5 Z"/></g>
<g><path style="opacity:0.012" fill="#000000" d="M 112.5,231.5 C 111.833,232.167 111.833,232.167 112.5,231.5 Z"/></g>
<g><path style="opacity:0.008" fill="#000000" d="M 134.5,231.5 C 134.833,231.5 135.167,231.5 135.5,231.5C 135.315,232.17 134.981,232.17 134.5,231.5 Z"/></g>
<g><path style="opacity:0.008" fill="#000000" d="M 175.5,231.5 C 174.833,232.167 174.833,232.167 175.5,231.5 Z"/></g>
<g><path style="opacity:0.012" fill="#000000" d="M 197.5,231.5 C 197.833,231.5 198.167,231.5 198.5,231.5C 198.315,232.17 197.981,232.17 197.5,231.5 Z"/></g>
<g><path style="opacity:0.012" fill="#000000" d="M 524.5,231.5 C 524.833,231.5 525.167,231.5 525.5,231.5C 525.315,232.17 524.981,232.17 524.5,231.5 Z"/></g>
<g><path style="opacity:0.016" fill="#000000" d="M 66.5,234.5 C 66.8333,234.5 67.1667,234.5 67.5,234.5C 67.3147,235.17 66.9813,235.17 66.5,234.5 Z"/></g>
<g><path style="opacity:0.012" fill="#000000" d="M 65.5,236.5 C 66.8333,237.167 66.8333,237.167 65.5,236.5 Z"/></g>
<g><path style="opacity:0.027" fill="#000000" d="M 173.5,239.5 C 174.833,240.167 174.833,240.167 173.5,239.5 Z"/></g>
<g><path style="opacity:0.027" fill="#000000" d="M 392.5,239.5 C 393.833,240.167 393.833,240.167 392.5,239.5 Z"/></g>
<g><path style="opacity:0.012" fill="#000000" d="M 148.5,240.5 C 149.833,241.167 149.833,241.167 148.5,240.5 Z"/></g>
<g><path style="opacity:0.012" fill="#000000" d="M 62.5,241.5 C 62.8333,241.5 63.1667,241.5 63.5,241.5C 63.3147,242.17 62.9813,242.17 62.5,241.5 Z"/></g>
<g><path style="opacity:0.024" fill="#000000" d="M 184.5,242.5 C 183.833,241.167 183.833,241.167 184.5,242.5 Z"/></g>
<g><path style="opacity:0.016" fill="#000000" d="M 189.5,241.5 C 190.833,242.167 190.833,242.167 189.5,241.5 Z"/></g>
<g><path style="opacity:0.02" fill="#000000" d="M 199.5,241.5 C 200.833,242.167 200.833,242.167 199.5,241.5 Z"/></g>
<g><path style="opacity:0.027" fill="#000000" d="M 252.5,242.5 C 251.833,241.167 251.833,241.167 252.5,242.5 Z"/></g>
<g><path style="opacity:0.024" fill="#000000" d="M 262.5,242.5 C 261.833,241.167 261.833,241.167 262.5,242.5 Z"/></g>
<g><path style="opacity:0.004" fill="#000000" d="M 306.5,241.5 C 307.833,242.167 307.833,242.167 306.5,241.5 Z"/></g>
<g><path style="opacity:0.02" fill="#000000" d="M 322.5,242.5 C 321.833,241.167 321.833,241.167 322.5,242.5 Z"/></g>
<g><path style="opacity:0.016" fill="#000000" d="M 376.5,241.5 C 377.833,242.167 377.833,242.167 376.5,241.5 Z"/></g>
<g><path style="opacity:0.024" fill="#000000" d="M 427.5,242.5 C 426.833,241.167 426.833,241.167 427.5,242.5 Z"/></g>
<g><path style="opacity:0.024" fill="#000000" d="M 431.5,241.5 C 432.833,242.167 432.833,242.167 431.5,241.5 Z"/></g>
<g><path style="opacity:1" fill="#21336b" d="M 158.5,255.5 C 158.5,256.833 158.5,258.167 158.5,259.5C 157.5,259.5 156.5,259.5 155.5,259.5C 155.158,258.662 154.492,258.328 153.5,258.5C 153.082,257.778 152.416,257.278 151.5,257C 152.598,251.171 152.765,245.338 152,239.5C 153.667,240.833 155.333,240.833 157,239.5C 157.173,245.016 157.673,250.349 158.5,255.5 Z"/></g>
<g><path style="opacity:1" fill="#253874" d="M 173.5,240.5 C 173.5,246.5 173.5,252.5 173.5,258.5C 170.946,259.388 168.279,259.721 165.5,259.5C 165.167,258.167 164.833,258.167 164.5,259.5C 162.436,259.238 161.103,258.071 160.5,256C 161.167,253.667 161.833,251.333 162.5,249C 161.179,247.455 161.512,246.289 163.5,245.5C 165.278,245.569 167.111,245.903 169,246.5C 169.374,244.102 169.374,241.769 169,239.5C 170.356,240.38 171.856,240.714 173.5,240.5 Z M 166.5,250.5 C 167.209,249.596 168.209,249.263 169.5,249.5C 169.5,251.5 169.5,253.5 169.5,255.5C 168.448,255.649 167.448,255.483 166.5,255C 165.263,253.365 165.263,251.865 166.5,250.5 Z"/></g>
<g><path style="opacity:0.991" fill="#233369" d="M 199.5,242.5 C 199.5,243.167 199.5,243.833 199.5,244.5C 198.662,244.842 198.328,245.508 198.5,246.5C 197.167,246.833 197.167,247.167 198.5,247.5C 198.34,249.153 197.674,250.486 196.5,251.5C 196.167,250.167 195.833,250.167 195.5,251.5C 194.167,251.833 194.167,252.167 195.5,252.5C 194.631,254.717 194.298,257.05 194.5,259.5C 192.833,259.5 191.167,259.5 189.5,259.5C 189.896,256.518 189.229,253.851 187.5,251.5C 188.855,250.325 188.688,249.325 187,248.5C 186.667,248.833 186.333,249.167 186,249.5C 184.171,247.267 183.671,244.933 184.5,242.5C 186.167,242.5 187.833,242.5 189.5,242.5C 189.369,243.239 189.536,243.906 190,244.5C 191.666,243.66 191.833,244.16 190.5,246C 191.126,246.75 191.626,247.584 192,248.5C 192.472,245.833 193.472,243.5 195,241.5C 196.356,242.38 197.856,242.714 199.5,242.5 Z"/></g>
<g><path style="opacity:0.035" fill="#02031b" d="M 263.5,259.5 C 263.5,259.167 263.5,258.833 263.5,258.5C 264.5,258.5 265.5,258.5 266.5,258.5C 266.5,253.167 266.5,247.833 266.5,242.5C 267.5,247.403 267.833,253.07 267.5,259.5C 266.167,259.5 264.833,259.5 263.5,259.5 Z"/></g>
<g><path style="opacity:0.004" fill="#000000" d="M 301.5,243.5 C 300.833,242.167 300.833,242.167 301.5,243.5 Z"/></g>
<g><path style="opacity:0.998" fill="#263a77" d="M 252.5,242.5 C 254.722,242.178 256.556,242.845 258,244.5C 259.625,243.588 260.459,244.255 260.5,246.5C 259.167,246.833 259.167,247.167 260.5,247.5C 260.987,248.473 261.487,249.473 262,250.5C 262.497,247.854 262.664,245.187 262.5,242.5C 263.833,242.5 265.167,242.5 266.5,242.5C 266.5,247.833 266.5,253.167 266.5,258.5C 265.5,258.5 264.5,258.5 263.5,258.5C 262.603,257.402 261.77,257.402 261,258.5C 259.632,257.007 259.465,255.507 260.5,254C 259.747,252.513 258.914,252.346 258,253.5C 257.667,252.167 257.333,250.833 257,249.5C 256.248,252.894 256.415,256.227 257.5,259.5C 255.828,259.387 253.994,259.721 252,260.5C 252.409,254.586 252.575,248.586 252.5,242.5 Z"/></g>
<g><path style="opacity:0.016" fill="#000000" d="M 334.5,243.5 C 335.833,244.167 335.833,244.167 334.5,243.5 Z"/></g>
<g><path style="opacity:0.412" fill="#162046" d="M 372.5,242.5 C 372.5,247.833 372.5,253.167 372.5,258.5C 373.5,258.5 374.5,258.5 375.5,258.5C 375.5,253.167 375.5,247.833 375.5,242.5C 375.833,242.5 376.167,242.5 376.5,242.5C 376.5,248.167 376.5,253.833 376.5,259.5C 374.833,259.5 373.167,259.5 371.5,259.5C 371.808,253.575 371.475,247.741 370.5,242C 371.437,241.308 372.103,241.475 372.5,242.5 Z"/></g>
<g><path style="opacity:0.137" fill="#071422" d="M 111.5,242.5 C 111.5,247.833 111.5,253.167 111.5,258.5C 110.813,253.1 110.146,247.6 109.5,242C 110.437,241.308 111.103,241.475 111.5,242.5 Z"/></g>
<g><path style="opacity:0.992" fill="#24356d" d="M 124.5,256.5 C 123.833,256.5 123.5,256.833 123.5,257.5C 122.167,257.833 122.167,258.167 123.5,258.5C 123.158,259.338 122.492,259.672 121.5,259.5C 121.167,258.167 120.833,258.167 120.5,259.5C 117.5,259.5 114.5,259.5 111.5,259.5C 111.5,259.167 111.5,258.833 111.5,258.5C 111.5,253.167 111.5,247.833 111.5,242.5C 114.88,241.671 118.214,241.338 121.5,241.5C 121.296,242.529 121.796,243.529 123,244.5C 123.333,244.167 123.667,243.833 124,243.5C 123.088,246.31 123.588,248.977 125.5,251.5C 124.691,253.071 124.357,254.738 124.5,256.5 Z M 118.5,247.5 C 117.791,248.404 116.791,248.737 115.5,248.5C 115.351,247.448 115.517,246.448 116,245.5C 116.708,246.381 117.542,247.047 118.5,247.5 Z M 118.5,253.5 C 118.611,254.117 118.944,254.617 119.5,255C 118.207,255.49 116.873,255.657 115.5,255.5C 115.402,252.752 116.402,252.086 118.5,253.5 Z"/></g>
<g><path style="opacity:0.012" fill="#000000" d="M 199.5,244.5 C 200.833,245.167 200.833,245.167 199.5,244.5 Z"/></g>
<g><path style="opacity:0.997" fill="#23346d" d="M 306.5,242.5 C 306.5,243.5 306.5,244.5 306.5,245.5C 308.199,245.34 309.866,245.506 311.5,246C 310.167,247.333 310.167,248.667 311.5,250C 309.888,250.72 308.388,250.554 307,249.5C 306.505,251.473 306.338,253.473 306.5,255.5C 307.833,255.5 309.167,255.5 310.5,255.5C 311.052,257.331 311.052,258.997 310.5,260.5C 308.591,259.652 306.591,259.318 304.5,259.5C 303.878,258.373 303.045,257.373 302,256.5C 301.501,252.179 301.334,247.846 301.5,243.5C 302.458,243.047 303.292,242.381 304,241.5C 304.671,242.252 305.504,242.586 306.5,242.5 Z"/></g>
<g><path style="opacity:1" fill="#2a4289" d="M 372.5,242.5 C 373.5,242.5 374.5,242.5 375.5,242.5C 375.5,247.833 375.5,253.167 375.5,258.5C 374.5,258.5 373.5,258.5 372.5,258.5C 372.5,253.167 372.5,247.833 372.5,242.5 Z"/></g>
<g><path style="opacity:1" fill="#24356c" d="M 427.5,242.5 C 428.833,242.5 430.167,242.5 431.5,242.5C 431.989,248.854 431.989,254.854 431.5,260.5C 429.765,259.943 428.098,259.61 426.5,259.5C 427.109,254.059 427.443,248.392 427.5,242.5 Z"/></g>
<g><path style="opacity:0.004" fill="#000000" d="M 228.5,245.5 C 229.833,246.167 229.833,246.167 228.5,245.5 Z"/></g>
<g><path style="opacity:0.012" fill="#000000" d="M 241.5,245.5 C 242.833,246.167 242.833,246.167 241.5,245.5 Z"/></g>
<g><path style="opacity:0.024" fill="#000000" d="M 359.5,245.5 C 360.833,246.167 360.833,246.167 359.5,245.5 Z"/></g>
<g><path style="opacity:0.012" fill="#000000" d="M 198.5,246.5 C 199.833,247.167 199.833,247.167 198.5,246.5 Z"/></g>
<g><path style="opacity:0.016" fill="#000000" d="M 260.5,246.5 C 261.833,247.167 261.833,247.167 260.5,246.5 Z"/></g>
<g><path style="opacity:0.012" fill="#000000" d="M 422.5,246.5 C 423.833,247.167 423.833,247.167 422.5,246.5 Z"/></g>
<g><path style="opacity:0.271" fill="#161f3e" d="M 148.5,241.5 C 148.773,247.393 148.773,253.393 148.5,259.5C 146.833,259.5 145.167,259.5 143.5,259.5C 143.777,254.767 143.443,250.1 142.5,245.5C 142.782,241.185 144.782,239.851 148.5,241.5 Z"/></g>
<g><path style="opacity:1" fill="#2d4692" d="M 144.5,246.5 C 145.5,246.5 146.5,246.5 147.5,246.5C 147.5,250.5 147.5,254.5 147.5,258.5C 146.5,258.5 145.5,258.5 144.5,258.5C 144.5,254.5 144.5,250.5 144.5,246.5 Z"/></g>
<g><path style="opacity:0.994" fill="#253874" d="M 212.5,256.5 C 211.833,256.5 211.5,256.833 211.5,257.5C 210.833,257.5 210.5,257.833 210.5,258.5C 209.833,258.5 209.5,258.833 209.5,259.5C 207.833,259.5 206.167,259.5 204.5,259.5C 204.158,258.662 203.492,258.328 202.5,258.5C 202.167,257.167 201.833,257.167 201.5,258.5C 200.733,257.828 200.066,256.995 199.5,256C 200.167,253.667 200.833,251.333 201.5,249C 200.179,247.455 200.512,246.289 202.5,245.5C 204.343,245.755 206.343,245.922 208.5,246C 209.931,246.465 211.097,247.299 212,248.5C 213.666,247.66 213.833,248.16 212.5,250C 213.167,250.333 213.833,250.667 214.5,251C 213.536,252.725 212.869,254.559 212.5,256.5 Z M 207.5,250.5 C 208.451,251.919 208.784,253.585 208.5,255.5C 207.209,255.737 206.209,255.404 205.5,254.5C 204.596,253.791 204.263,252.791 204.5,251.5C 205.791,251.737 206.791,251.404 207.5,250.5 Z"/></g>
<g><path style="opacity:0.176" fill="#10142a" d="M 227.5,246.5 C 226.5,246.5 225.5,246.5 224.5,246.5C 224.82,249.898 224.487,253.232 223.5,256.5C 222.893,256.376 222.56,256.043 222.5,255.5C 223.803,252.645 223.803,249.645 222.5,246.5C 221.52,249.086 221.187,251.753 221.5,254.5C 220.527,252.052 220.194,249.385 220.5,246.5C 219.5,246.5 218.5,246.5 217.5,246.5C 217.5,249.5 217.5,252.5 217.5,255.5C 216.799,252.437 216.132,249.27 215.5,246C 219.689,245.188 223.689,245.355 227.5,246.5 Z M 222.5,255.5 C 221.833,255.5 221.5,255.167 221.5,254.5C 221.187,251.753 221.52,249.086 222.5,246.5C 223.803,249.645 223.803,252.645 222.5,255.5 Z"/></g>
<g><path style="opacity:0.978" fill="#253873" d="M 282.5,249.5 C 282.5,250.833 282.5,252.167 282.5,253.5C 280.076,253.192 277.743,253.526 275.5,254.5C 275.624,255.107 275.957,255.44 276.5,255.5C 278.167,255.5 279.833,255.5 281.5,255.5C 281.833,255.5 282.167,255.5 282.5,255.5C 282.5,256.5 282.5,257.5 282.5,258.5C 281.833,258.5 281.5,258.833 281.5,259.5C 279.167,259.5 276.833,259.5 274.5,259.5C 272.583,257.738 271.25,255.571 270.5,253C 271.466,251.171 271.633,249.338 271,247.5C 271.333,247.833 271.667,248.167 272,248.5C 273.204,247.529 273.704,246.529 273.5,245.5C 276.167,245.5 278.833,245.5 281.5,245.5C 283.642,246.437 283.976,247.77 282.5,249.5 Z"/></g>
<g><path style="opacity:0.016" fill="#000000" d="M 298.5,247.5 C 299.833,248.167 299.833,248.167 298.5,247.5 Z"/></g>
<g><path style="opacity:0.012" fill="#000000" d="M 58.5,248.5 C 58.8333,248.5 59.1667,248.5 59.5,248.5C 59.3147,249.17 58.9813,249.17 58.5,248.5 Z"/></g>
<g><path style="opacity:0.463" fill="#202f61" d="M 241.5,246.5 C 241.843,248.483 241.176,249.817 239.5,250.5C 239.44,249.957 239.107,249.624 238.5,249.5C 237.513,252.768 237.18,256.102 237.5,259.5C 235.22,259.746 233.22,259.746 231.5,259.5C 232.811,254.969 232.811,250.469 231.5,246C 234.78,245.598 238.113,245.764 241.5,246.5 Z"/></g>
<g><path style="opacity:1" fill="#263874" d="M 342.5,239.5 C 343.627,240.122 344.627,240.955 345.5,242C 343.371,247.715 343.038,253.549 344.5,259.5C 342.828,259.387 340.994,259.721 339,260.5C 339.722,254.448 339.555,248.615 338.5,243C 339.731,241.595 341.064,240.429 342.5,239.5 Z"/></g>
<g><path style="opacity:0.993" fill="#253874" d="M 359.5,246.5 C 359.5,251.167 359.5,255.833 359.5,260.5C 358.833,260.5 358.5,260.833 358.5,261.5C 357.833,261.5 357.5,261.833 357.5,262.5C 356.833,262.5 356.5,262.833 356.5,263.5C 353.482,263.665 350.482,263.498 347.5,263C 348.833,261.667 348.833,260.333 347.5,259C 348.044,258.283 348.711,257.783 349.5,257.5C 346.235,253.564 346.901,249.73 351.5,246C 354.221,245.398 356.887,245.565 359.5,246.5 Z M 352.5,250.5 C 353.209,249.596 354.209,249.263 355.5,249.5C 355.5,251.167 355.5,252.833 355.5,254.5C 354.448,254.649 353.448,254.483 352.5,254C 352.598,252.715 352.598,251.549 352.5,250.5 Z M 349.5,257.5 C 351.086,258.148 352.753,258.648 354.5,259C 353.667,259.167 352.833,259.333 352,259.5C 350.624,259.316 349.791,258.649 349.5,257.5 Z"/></g>
<g><path style="opacity:0.992" fill="#223168" d="M 400.5,259.5 C 400.167,258.167 399.833,258.167 399.5,259.5C 397.436,259.238 396.103,258.071 395.5,256C 396.78,253.868 396.78,251.702 395.5,249.5C 396.137,247.697 397.303,246.364 399,245.5C 400.645,245.693 402.479,245.86 404.5,246C 406.294,247.473 407.96,248.306 409.5,248.5C 409.358,253.107 408.691,257.107 407.5,260.5C 405.253,259.626 402.92,259.292 400.5,259.5 Z"/></g>
<g><path style="opacity:0.992" fill="#24356e" d="M 334.5,244.5 C 334.833,246.5 335.167,248.5 335.5,250.5C 334.167,250.833 334.167,251.167 335.5,251.5C 335.5,253.167 335.5,254.833 335.5,256.5C 334.833,256.5 334.5,256.833 334.5,257.5C 333.833,257.5 333.5,257.833 333.5,258.5C 332.508,258.328 331.842,258.662 331.5,259.5C 328.223,259.216 325.057,259.549 322,260.5C 321.287,254.634 321.454,248.634 322.5,242.5C 325.893,241.556 329.226,241.222 332.5,241.5C 332.016,242.781 332.683,243.781 334.5,244.5 Z M 326.5,245.5 C 327.831,246.988 329.164,247.655 330.5,247.5C 329.311,248.429 327.978,248.762 326.5,248.5C 326.5,247.5 326.5,246.5 326.5,245.5 Z M 330.5,253.5 C 329.167,253.833 329.167,254.167 330.5,254.5C 329.432,255.434 328.099,255.768 326.5,255.5C 326.5,254.5 326.5,253.5 326.5,252.5C 328.099,252.232 329.432,252.566 330.5,253.5 Z"/></g>
<g><path style="opacity:0.004" fill="#000000" d="M 239.5,250.5 C 238.833,251.167 238.833,251.167 239.5,250.5 Z"/></g>
<g><path style="opacity:0.992" fill="#233268" d="M 298.5,247.5 C 297.167,247.833 297.167,248.167 298.5,248.5C 298.672,249.492 298.338,250.158 297.5,250.5C 297.167,249.167 296.833,249.167 296.5,250.5C 295.167,250.833 295.167,251.167 296.5,251.5C 295.027,253.593 295.527,255.26 298,256.5C 298.333,256.167 298.667,255.833 299,255.5C 298.689,256.935 298.855,258.268 299.5,259.5C 298.113,259.807 296.446,259.807 294.5,259.5C 294.167,258.167 293.833,258.167 293.5,259.5C 292.175,258.047 291.342,258.381 291,260.5C 289.175,259.897 287.341,259.23 285.5,258.5C 287.138,257.295 287.471,255.962 286.5,254.5C 287.074,252.941 287.74,251.441 288.5,250C 287.747,248.513 286.914,248.346 286,249.5C 285.51,248.207 285.343,246.873 285.5,245.5C 287.722,245.178 289.556,245.845 291,247.5C 291.689,246.643 292.522,245.977 293.5,245.5C 295.167,245.5 296.833,245.5 298.5,245.5C 299.463,245.97 299.463,246.637 298.5,247.5 Z"/></g>
<g><path style="opacity:0.016" fill="#000000" d="M 296.5,250.5 C 296.833,250.5 297.167,250.5 297.5,250.5C 297.315,251.17 296.981,251.17 296.5,250.5 Z"/></g>
<g><path style="opacity:0.008" fill="#000000" d="M 335.5,250.5 C 336.833,251.167 336.833,251.167 335.5,250.5 Z"/></g>
<g><path style="opacity:0.016" fill="#000000" d="M 26.5,252.5 C 25.8333,251.167 25.8333,251.167 26.5,252.5 Z"/></g>
<g><path style="opacity:0.016" fill="#000000" d="M 195.5,251.5 C 195.833,251.5 196.167,251.5 196.5,251.5C 196.315,252.17 195.981,252.17 195.5,251.5 Z"/></g>
<g><path style="opacity:0.012" fill="#000000" d="M 55.5,253.5 C 55.8333,253.5 56.1667,253.5 56.5,253.5C 56.3147,254.17 55.9813,254.17 55.5,253.5 Z"/></g>
<g><path style="opacity:0.016" fill="#000000" d="M 158.5,254.5 C 159.833,255.167 159.833,255.167 158.5,254.5 Z"/></g>
<g><path style="opacity:0.004" fill="#101221" d="M 282.5,249.5 C 283.239,249.369 283.906,249.536 284.5,250C 283.167,251.667 283.167,253.333 284.5,255C 283.906,255.464 283.239,255.631 282.5,255.5C 282.167,255.5 281.833,255.5 281.5,255.5C 279.833,254.167 278.167,254.167 276.5,255.5C 275.957,255.44 275.624,255.107 275.5,254.5C 277.743,253.526 280.076,253.192 282.5,253.5C 282.5,252.167 282.5,250.833 282.5,249.5 Z"/></g>
<g><path style="opacity:0.016" fill="#000000" d="M 310.5,254.5 C 311.833,255.167 311.833,255.167 310.5,254.5 Z"/></g>
<g><path style="opacity:0.012" fill="#000000" d="M 54.5,255.5 C 55.8333,256.167 55.8333,256.167 54.5,255.5 Z"/></g>
<g><path style="opacity:0.004" fill="#000000" d="M 124.5,256.5 C 125.833,257.167 125.833,257.167 124.5,256.5 Z"/></g>
<g><path style="opacity:1" fill="#24356f" d="M 139.5,258.5 C 136.946,259.388 134.279,259.721 131.5,259.5C 131.158,258.662 130.492,258.328 129.5,258.5C 129.167,257.167 128.833,257.167 128.5,258.5C 127.844,254.504 127.511,250.17 127.5,245.5C 129.527,245.338 131.527,245.505 133.5,246C 132.549,249.057 132.216,252.223 132.5,255.5C 133.552,255.649 134.552,255.483 135.5,255C 134.549,251.943 134.216,248.777 134.5,245.5C 136.527,245.338 138.527,245.505 140.5,246C 139.536,250.066 139.203,254.233 139.5,258.5 Z"/></g>
<g><path style="opacity:0.012" fill="#000000" d="M 212.5,256.5 C 213.833,257.167 213.833,257.167 212.5,256.5 Z"/></g>
<g><path style="opacity:0.008" fill="#000000" d="M 335.5,256.5 C 336.833,257.167 336.833,257.167 335.5,256.5 Z"/></g>
<g><path style="opacity:1" fill="#243772" d="M 392.5,240.5 C 392.5,246.5 392.5,252.5 392.5,258.5C 389.946,259.388 387.279,259.721 384.5,259.5C 384.167,258.167 383.833,258.167 383.5,259.5C 381.436,259.238 380.103,258.071 379.5,256C 380.167,253.667 380.833,251.333 381.5,249C 380.179,247.455 380.512,246.289 382.5,245.5C 384.278,245.569 386.111,245.903 388,246.5C 388.374,244.102 388.374,241.769 388,239.5C 389.356,240.38 390.856,240.714 392.5,240.5 Z M 385.5,250.5 C 386.209,249.596 387.209,249.263 388.5,249.5C 388.5,251.5 388.5,253.5 388.5,255.5C 387.448,255.649 386.448,255.483 385.5,255C 386.801,253.384 386.801,251.884 385.5,250.5 Z"/></g>
<g><path style="opacity:0.016" fill="#000000" d="M 123.5,257.5 C 123.833,257.5 124.167,257.5 124.5,257.5C 124.315,258.17 123.981,258.17 123.5,257.5 Z"/></g>
<g><path style="opacity:0.012" fill="#000000" d="M 211.5,257.5 C 211.833,257.5 212.167,257.5 212.5,257.5C 212.5,258.833 211.833,259.5 210.5,259.5C 210.5,259.167 210.5,258.833 210.5,258.5C 211.167,258.5 211.5,258.167 211.5,257.5 Z"/></g>
<g><path style="opacity:1" fill="#273a7a" d="M 221.5,254.5 C 221.5,255.167 221.833,255.5 222.5,255.5C 222.56,256.043 222.893,256.376 223.5,256.5C 224.487,253.232 224.82,249.898 224.5,246.5C 225.5,246.5 226.5,246.5 227.5,246.5C 227.833,246.5 228.167,246.5 228.5,246.5C 228.5,250.5 228.5,254.5 228.5,258.5C 225.609,259.403 222.609,259.736 219.5,259.5C 218.4,258.395 217.733,257.062 217.5,255.5C 217.5,252.5 217.5,249.5 217.5,246.5C 218.5,246.5 219.5,246.5 220.5,246.5C 220.194,249.385 220.527,252.052 221.5,254.5 Z M 222.5,255.5 C 221.833,255.5 221.5,255.167 221.5,254.5C 221.187,251.753 221.52,249.086 222.5,246.5C 223.803,249.645 223.803,252.645 222.5,255.5 Z"/></g>
<g><path style="opacity:0.02" fill="#000000" d="M 334.5,257.5 C 334.833,257.5 335.167,257.5 335.5,257.5C 335.315,258.17 334.981,258.17 334.5,257.5 Z"/></g>
<g><path style="opacity:1" fill="#23346d" d="M 422.5,247.5 C 423.344,251.099 423.677,254.766 423.5,258.5C 420.609,259.403 417.609,259.736 414.5,259.5C 414.167,258.167 413.833,258.167 413.5,259.5C 412.624,259.631 411.957,259.298 411.5,258.5C 411.587,256.297 411.587,254.13 411.5,252C 414.167,250 414.167,248 411.5,246C 415.2,244.883 418.866,245.383 422.5,247.5 Z"/></g>
<g><path style="opacity:0.012" fill="#000000" d="M 128.5,258.5 C 128.833,258.5 129.167,258.5 129.5,258.5C 129.315,259.17 128.981,259.17 128.5,258.5 Z"/></g>
<g><path style="opacity:0.016" fill="#000000" d="M 139.5,258.5 C 140.833,259.167 140.833,259.167 139.5,258.5 Z"/></g>
<g><path style="opacity:0.012" fill="#000000" d="M 153.5,258.5 C 152.833,259.167 152.833,259.167 153.5,258.5 Z"/></g>
<g><path style="opacity:0.02" fill="#000000" d="M 173.5,258.5 C 174.833,259.167 174.833,259.167 173.5,258.5 Z"/></g>
<g><path style="opacity:0.012" fill="#000000" d="M 201.5,258.5 C 201.833,258.5 202.167,258.5 202.5,258.5C 202.315,259.17 201.981,259.17 201.5,258.5 Z"/></g>
<g><path style="opacity:0.004" fill="#000000" d="M 228.5,258.5 C 229.833,259.167 229.833,259.167 228.5,258.5 Z"/></g>
<g><path style="opacity:0.016" fill="#000000" d="M 282.5,258.5 C 283.833,259.167 283.833,259.167 282.5,258.5 Z"/></g>
<g><path style="opacity:0.016" fill="#000000" d="M 333.5,258.5 C 333.833,258.5 334.167,258.5 334.5,258.5C 334.315,259.17 333.981,259.17 333.5,258.5 Z"/></g>
<g><path style="opacity:0.02" fill="#000000" d="M 392.5,258.5 C 393.833,259.167 393.833,259.167 392.5,258.5 Z"/></g>
<g><path style="opacity:0.004" fill="#000000" d="M 423.5,258.5 C 424.833,259.167 424.833,259.167 423.5,258.5 Z"/></g>
<g><path style="opacity:0.004" fill="#000000" d="M 50.5,259.5 C 50.8333,259.5 51.1667,259.5 51.5,259.5C 51.3147,260.17 50.9813,260.17 50.5,259.5 Z"/></g>
<g><path style="opacity:0.004" fill="#000000" d="M 111.5,259.5 C 110.833,260.167 110.833,260.167 111.5,259.5 Z"/></g>
<g><path style="opacity:0.004" fill="#000000" d="M 120.5,259.5 C 120.833,259.5 121.167,259.5 121.5,259.5C 121.315,260.17 120.981,260.17 120.5,259.5 Z"/></g>
<g><path style="opacity:0.004" fill="#000000" d="M 131.5,259.5 C 130.833,260.167 130.833,260.167 131.5,259.5 Z"/></g>
<g><path style="opacity:0.004" fill="#000000" d="M 148.5,259.5 C 149.833,260.167 149.833,260.167 148.5,259.5 Z"/></g>
<g><path style="opacity:0.004" fill="#000000" d="M 155.5,259.5 C 154.833,260.167 154.833,260.167 155.5,259.5 Z"/></g>
<g><path style="opacity:0.008" fill="#000000" d="M 158.5,259.5 C 159.833,260.167 159.833,260.167 158.5,259.5 Z"/></g>
<g><path style="opacity:0.004" fill="#000000" d="M 164.5,259.5 C 164.833,259.5 165.167,259.5 165.5,259.5C 165.315,260.17 164.981,260.17 164.5,259.5 Z"/></g>
<g><path style="opacity:0.004" fill="#000000" d="M 194.5,259.5 C 195.833,260.167 195.833,260.167 194.5,259.5 Z"/></g>
<g><path style="opacity:0.004" fill="#000000" d="M 204.5,259.5 C 203.833,260.167 203.833,260.167 204.5,259.5 Z"/></g>
<g><path style="opacity:0.004" fill="#000000" d="M 209.5,259.5 C 209.833,259.5 210.167,259.5 210.5,259.5C 210.315,260.17 209.981,260.17 209.5,259.5 Z"/></g>
<g><path style="opacity:0.004" fill="#000000" d="M 219.5,259.5 C 218.833,260.167 218.833,260.167 219.5,259.5 Z"/></g>
<g><path style="opacity:0.004" fill="#000000" d="M 263.5,259.5 C 262.833,260.167 262.833,260.167 263.5,259.5 Z"/></g>
<g><path style="opacity:0.004" fill="#000000" d="M 274.5,259.5 C 273.833,260.167 273.833,260.167 274.5,259.5 Z"/></g>
<g><path style="opacity:0.004" fill="#000000" d="M 281.5,259.5 C 281.833,259.5 282.167,259.5 282.5,259.5C 282.315,260.17 281.981,260.17 281.5,259.5 Z"/></g>
<g><path style="opacity:0.004" fill="#000000" d="M 293.5,259.5 C 293.833,259.5 294.167,259.5 294.5,259.5C 294.315,260.17 293.981,260.17 293.5,259.5 Z"/></g>
<g><path style="opacity:0.004" fill="#000000" d="M 304.5,259.5 C 303.833,260.167 303.833,260.167 304.5,259.5 Z"/></g>
<g><path style="opacity:0.004" fill="#000000" d="M 331.5,259.5 C 332.833,260.167 332.833,260.167 331.5,259.5 Z"/></g>
<g><path style="opacity:0.004" fill="#000000" d="M 376.5,259.5 C 377.833,260.167 377.833,260.167 376.5,259.5 Z"/></g>
<g><path style="opacity:0.004" fill="#000000" d="M 383.5,259.5 C 383.833,259.5 384.167,259.5 384.5,259.5C 384.315,260.17 383.981,260.17 383.5,259.5 Z"/></g>
<g><path style="opacity:0.004" fill="#000000" d="M 399.5,259.5 C 399.833,259.5 400.167,259.5 400.5,259.5C 400.315,260.17 399.981,260.17 399.5,259.5 Z"/></g>
<g><path style="opacity:0.004" fill="#000000" d="M 413.5,259.5 C 413.833,259.5 414.167,259.5 414.5,259.5C 414.315,260.17 413.981,260.17 413.5,259.5 Z"/></g>
<g><path style="opacity:0.004" fill="#000000" d="M 359.5,260.5 C 360.833,261.167 360.833,261.167 359.5,260.5 Z"/></g>
<g><path style="opacity:0.016" fill="#000000" d="M 358.5,261.5 C 358.833,261.5 359.167,261.5 359.5,261.5C 359.315,262.17 358.981,262.17 358.5,261.5 Z"/></g>
<g><path style="opacity:0.016" fill="#000000" d="M 357.5,262.5 C 357.833,262.5 358.167,262.5 358.5,262.5C 358.315,263.17 357.981,263.17 357.5,262.5 Z"/></g>
<g><path style="opacity:0.004" fill="#000000" d="M 356.5,263.5 C 356.833,263.5 357.167,263.5 357.5,263.5C 357.315,264.17 356.981,264.17 356.5,263.5 Z"/></g>
</svg>
