<svg width="80" height="80" viewBox="0 0 80 80" fill="none" xmlns="http://www.w3.org/2000/svg">
<path d="M68.0011 52.1503C68.0011 51.2522 67.3143 50.5654 66.4162 50.5654C65.5181 50.5654 64.8313 51.2522 64.8313 52.1503V66.4145C64.8313 68.4749 63.1936 70.1126 61.1332 70.1126H45.2841C44.386 70.1126 43.6992 70.7994 43.6992 71.6975C43.6992 72.5956 44.386 73.2824 45.2841 73.2824H61.1332C64.937 73.2824 68.0011 70.2183 68.0011 66.4145V52.1503Z" fill="#0072CC"/>
<path d="M53.207 38.415H23.7919C22.8938 38.415 22.207 39.1018 22.207 39.9999C22.207 40.8981 22.8938 41.5849 23.7919 41.5849H53.207C54.1051 41.5849 54.7919 40.8981 54.7919 39.9999C54.7919 39.1018 54.1051 38.415 53.207 38.415Z" fill="#0072CC"/>
<path d="M24.0849 25.7352H55.9141C56.8122 25.7352 57.499 25.0484 57.499 24.1503C57.499 23.2522 56.8122 22.5654 55.9141 22.5654H24.0849C23.1868 22.5654 22.5 23.2522 22.5 24.1503C22.5 25.0484 23.1868 25.7352 24.0849 25.7352Z" fill="#183F7C"/>
<path d="M45.924 48.9805L23.7919 48.9805C22.8938 48.9805 22.207 49.6673 22.207 50.5654C22.207 51.4635 22.8938 52.1503 23.7919 52.1503H45.924C46.8221 52.1503 47.5089 51.4635 47.5089 50.5654C47.5089 49.6673 46.8221 48.9805 45.924 48.9805Z" fill="#0072CC"/>
<path d="M68 13.5847C68 9.78095 64.9358 6.7168 61.1321 6.7168H18.8679C15.0642 6.7168 12 9.78095 12 13.5847V66.4149C12 70.2187 15.0642 73.2828 18.8679 73.2828C45.9698 73.2828 68 51.2526 68 24.1508V13.5847ZM64.8302 24.1508C64.8302 49.5093 44.2264 70.113 18.8679 70.113C16.8075 70.113 15.1698 68.4753 15.1698 66.4149V13.5847C15.1698 11.5243 16.8075 9.88661 18.8679 9.88661H61.1321C63.1925 9.88661 64.8302 11.5243 64.8302 13.5847V24.1508Z" fill="#183F7C"/>
</svg>
