<svg width="80" height="80" viewBox="0 0 80 80" fill="none" xmlns="http://www.w3.org/2000/svg">
<path d="M17.8242 31.7765L12.694 28.8397V14.2401C16.3352 16.3105 24.8958 21.1969 28.6146 23.321V24.16C28.6146 24.8963 29.2109 25.4933 29.9479 25.4933C30.6849 25.4933 31.2813 24.8963 31.2813 24.16V23.3141C35.1274 21.1146 43.2812 16.4617 47.1745 14.242V28.8384L41.7005 31.9614C40.1848 32.8523 41.4963 35.1237 43.0209 34.2778C43.0208 34.2778 49.168 30.7713 49.168 30.7713C49.5846 30.5337 49.8411 30.0916 49.8411 29.6131V11.9465C49.8402 11.4661 49.5817 11.0205 49.1654 10.7811C49.1654 10.7811 30.6042 0.175619 30.6042 0.175619C30.1953 -0.0587565 29.6927 -0.0581055 29.2813 0.174968L10.7057 10.7804C10.2948 11.0193 10.0271 11.4662 10.0273 11.9465C10.0273 11.9465 10.0273 29.6131 10.0273 29.6131C10.0273 30.091 10.2839 30.533 10.6979 30.77L16.4987 34.0903C18.0154 34.9461 19.3346 32.6549 17.8242 31.7765ZM29.9427 2.86898L45.8151 11.9386C41.9019 14.176 33.8224 18.7905 29.948 20.9982C26.1889 18.8582 17.7294 14.0392 14.056 11.9386L29.9427 2.86898Z" fill="#183F7C"/>
<path d="M69.7849 66.392L65.9281 59.793L64.5284 54.8242C64.586 53.819 56.7711 44.6028 56.1496 43.6145C54.0916 41.7069 50.8632 41.6708 48.7537 43.3483C48.7537 43.3483 42.9633 47.8796 42.9633 47.8796C42.7029 48.0814 42.2862 48.0013 42.0557 47.7084L38.6909 43.4042C43.3398 36.5264 38.2663 27.0207 30.0388 26.8386C24.1014 26.5672 18.917 31.6272 19.005 37.545C18.9801 43.6428 24.2442 48.6846 30.3511 48.2202L35.0649 54.7604L30.3031 51.9909C30.2458 51.9577 30.1859 51.9284 30.1247 51.9043C27.2185 50.6367 20.9087 50.7793 20.3512 54.649C20.268 55.7064 20.7328 56.7207 21.5141 57.2995L31.4112 65.9369C31.4698 65.9883 31.5323 66.0345 31.6 66.0742L41.7537 72.1901C41.7966 72.2162 41.8409 72.2396 41.8852 72.2604L47.9268 75.028L52.9073 79.6439C53.3872 80.0902 54.1209 80.1185 54.6352 79.7162L69.4555 68.1146C69.9802 67.7032 70.1221 66.9675 69.7849 66.392ZM21.6716 37.5449C21.6716 36.7787 21.7738 36.0468 21.9757 35.3526C22.945 31.9111 26.1148 29.4904 29.6898 29.4811C33.331 29.4885 36.6079 31.9801 37.521 35.5199C38.016 37.3772 37.7968 39.4608 36.9294 41.1498L32.3969 35.3529C31.0046 33.5818 28.6215 33.0585 26.7398 33.9828C24.1963 35.1946 23.3175 38.4853 25.0363 40.8457C25.0362 40.8457 28.3822 45.4882 28.3822 45.4882C24.5791 44.846 21.6716 41.5285 21.6716 37.5449ZM53.8865 76.9154L49.5831 72.9271C49.4789 72.8308 49.3604 72.752 49.2315 72.6927L43.0649 69.8672L33.0753 63.8503L23.1885 55.2266C22.9246 55.0233 22.9788 54.7224 23.156 54.6393C24.9653 53.6801 27.0732 53.5753 29.0505 54.3477L37.4672 59.2416C39.0612 60.1408 40.8356 58.1206 39.7276 56.6692C39.7276 56.6693 32.0826 46.0614 32.0826 46.0614C32.0823 46.0609 32.0821 46.0604 32.0818 46.0599L27.2042 39.2923C25.7234 37.1764 28.6852 34.9804 30.298 36.9981C30.2979 36.9981 39.9568 49.3529 39.9568 49.3529C41.0974 50.806 43.1794 51.0886 44.6039 49.9818L50.4021 45.4447C51.4698 44.5996 52.9984 44.5905 54.1651 45.4056L61.6013 54.8646C61.7576 55.0593 61.8904 55.3203 61.9724 55.5834L63.4073 60.6797C63.4386 60.7884 63.4828 60.8933 63.5401 60.9909L66.8956 66.7324L53.8865 76.9154Z" fill="#9B59B6"/>
</svg>
