<svg width="80" height="80" viewBox="0 0 80 80" fill="none" xmlns="http://www.w3.org/2000/svg">
<path d="M73.6621 25.9751C73.6621 25.8165 73.6621 25.659 73.6621 25.5003C73.651 15.8401 65.9512 8.01194 56.4492 8.00013C52.5558 7.98494 48.7754 9.32657 45.7375 11.8017C43.1772 13.8791 41.2494 16.6512 40.1764 19.7974C35.7889 18.3979 31.0025 19.7457 27.9486 23.2401C24.8947 26.7345 24.1416 31.7253 26.0246 35.9898C27.9082 40.2543 32.0771 42.9983 36.6754 43H71.4819C75.7609 43.0011 79.3759 39.7745 79.9281 35.461C80.4804 31.1476 77.7983 27.0878 73.6621 25.9751ZM71.4819 40.1643H36.6809C32.3981 40.1643 28.7238 37.0592 27.9414 32.7783C27.1595 28.4969 29.4913 24.2577 33.4892 22.6939C37.4866 21.1306 42.0124 22.6877 44.2546 26.3976C44.6757 27.0209 45.504 27.1986 46.1365 26.8015C46.7695 26.4043 46.9848 25.5723 46.6256 24.9103C45.654 23.2997 44.3193 21.9474 42.7318 20.9658C44.9258 14.1064 51.7009 9.88797 58.7085 11.0175C65.716 12.1476 70.8749 18.2899 70.8738 25.5032C70.8738 26.0032 70.8489 26.5084 70.7996 27.0045C70.7609 27.3809 70.8715 27.7578 71.1073 28.0508C71.3435 28.3434 71.6844 28.5284 72.0551 28.5644C75.1467 28.8035 77.4879 31.5036 77.3329 34.6515C77.178 37.8 74.5828 40.2487 71.4835 40.1727L71.4819 40.1643Z" fill="#183F7C"/>
<path d="M10.2687 72C9.81205 72 9.38377 71.7783 9.12033 71.4059L0.256582 58.8702C0.00929924 58.5195 -0.0642174 58.0755 0.0577532 57.6648C0.179724 57.2536 0.483815 56.9212 0.882586 56.7617C1.0118 56.71 1.60995 56.4227 2.2432 56.1204C5.00564 54.7966 11.4734 51.6968 17.3163 49.5549L17.67 49.4244C19.5708 48.7241 21.5374 48 23.7289 48H37.1312C38.5965 48.0011 39.9778 48.6813 40.87 49.8406C41.7628 50.9999 42.0657 52.507 41.6898 53.9197C41.437 54.9272 40.9903 55.8764 40.3743 56.7145C41.6514 56.3216 42.8856 55.7992 44.0563 55.1568C49.3684 52.2403 54.0773 50.8209 58.0428 50.936C59.7576 50.9837 61.258 52.0991 61.7949 53.7246C62.3323 55.3502 61.7904 57.1374 60.4404 58.1933L60.3858 58.2339L48.3648 66.7411C47.3567 67.523 46.1888 68.0743 44.9435 68.356C44.5592 68.4433 44.1086 68.5511 43.6296 68.6656C40.3013 69.4631 34.7291 70.7979 29.0633 70.3734C26.3243 70.1689 24.4179 69.5903 22.8863 69.1268C19.666 68.146 17.8916 67.6136 10.9961 71.7955C10.7767 71.9283 10.5255 71.9989 10.2687 72ZM3.51526 58.6179L10.6664 68.7317C17.4043 64.8405 19.9484 65.3067 23.7022 66.4454C25.1748 66.8911 26.8428 67.3968 29.2739 67.5786C34.5008 67.9698 39.8029 66.6994 42.9752 65.9397C43.4626 65.8224 43.9231 65.713 44.3258 65.6218C45.1757 65.4295 45.9721 65.0516 46.6577 64.5154C46.6761 64.4998 46.6956 64.4859 46.714 64.4731L58.7278 55.9704C59.1405 55.638 59.3015 55.0834 59.1299 54.5827C58.9584 54.0814 58.4917 53.7407 57.9615 53.7291C54.4995 53.6285 50.2768 54.9311 45.4096 57.6026C42.7302 59.0797 39.7728 59.9861 36.7241 60.264C36.0586 60.3212 32.6768 60.558 31.5106 59.5537C31.0154 59.1442 30.8328 58.4678 31.0539 57.866C31.4755 56.7451 32.8455 56.6484 34.2167 56.6484C36.8394 56.6484 38.3498 55.5502 38.9747 53.1911C39.1295 52.6148 39.0053 51.9991 38.6389 51.5273C38.2769 51.0643 37.7199 50.7959 37.1312 50.8015H23.7289C22.0442 50.8015 20.389 51.4094 18.6413 52.0524L18.2848 52.1841C12.6107 54.2659 6.27212 57.2969 3.51526 58.6179Z" fill="#7573FF"/>
</svg>
