<?xml version="1.0" encoding="UTF-8"?>
<svg id="Layer_1" xmlns="http://www.w3.org/2000/svg" version="1.1" viewBox="0 0 1920 1080">
  <!-- Generator: Adobe Illustrator 29.5.1, SVG Export Plug-In . SVG Version: 2.1.0 Build 141)  -->
  <defs>
    <style>
      .st0, .st1 {
        fill: #283e81;
      }

      .st1 {
        font-family: ProximaNova-Bold, 'Proxima Nova';
        font-size: 42px;
        font-weight: 700;
      }

      .st2 {
        fill: #f29f43;
      }
    </style>
  </defs>
  <path class="st0" d="M480,785h40s3-1,7-7,147-255,147-255h-56.3l-51.7,90h-8l-51.6-90h-56.9l84.5,146-61.7,105.8c-.8,1.4-1,3.1-.4,4.6h0c1.3,3.4,4.5,5.6,8.1,5.6Z"/>
  <path class="st0" d="M643,622l58.3-99h56.2s63.6,10,61.6,77,0,119.7,0,119.7c0,0,1,9.3-4,9.3h-37.5s-6.5,0-6.5-9v-117s-.8-40-34-40h-37s-8-2-8,11v147.8c0,1.4-.6,2.7-1.7,3.6l-3,2.5c-.9.7-2,1.1-3.2,1.1h-33.6c-1.5,0-2.9-.8-3.7-2l-2.3-3.5c-1-1.6-1.6-3.4-1.6-5.3v-96.2Z"/>
  <path class="st0" d="M863,489h49v34h67.1l-9,31s-4,8-12,9-39.9,0-39.9,0c0,0-5.1,0-6.1,8s0,88,0,88c0,0,4,26,28,27s32-2,32-2c0,0,7.1-.1,7,7.5s0,27.2,0,27.2c0,0-.1,6.3-11.1,7.3l-11,1s-43.8,2.1-56-4-36-18.4-38-56.7,0-95,0-95c0,0,0-8.3-10-8.3h-24l9-31s5.7-9,12.4-9h12.6v-34Z"/>
  <path class="st0" d="M1000,531v186.2c0,3.4,1.4,6.6,3.9,8.8h0c2.2,1.9,5,3,7.9,3h25.5c.3,0,5.2-1.7,7-3.4,2.4-2.2,3.7-5.3,3.7-8.6v-136c0-.3,0-.6,0-.9,0-4.1,1-16.1,11-17.1s27.6.1,41.9,0c19.1,0,17.1,2.9,11.2-16.4l-4.1-12.6s-2.8-11-14.9-11h-86.1s-7-1-7,8Z"/>
  <path class="st0" d="M1136,563s1-7,5.7-23c4.7-16,14.8-17,14.8-17,0,0,62.5-1,83.5,2,52.8,7.5,52,55,52,55v141c0,6-9.9,6.3-9.9,6.3,0,0-91.1.7-104.2,0s-26.9-8.3-26.9-8.3c0,0-38.8-15.6-30-72,8-51,70-53,70-53l52-1s3-2,1-9c-5.7-19.8-33-21-33-21h-75ZM1168,659c-1,27,25,28.7,25,28.7l50.9.5v-54.2h-50.9s-24-2-25,25Z"/>
  <path class="st0" d="M1325.7,563.4s1-7,5.7-23,14.8-17,14.8-17c0,0,62.5-1,83.5,2,52.8,7.5,52,55,52,55v141c0,6-9.9,6.3-9.9,6.3,0,0-91.1.7-104.2,0s-26.9-8.3-26.9-8.3c0,0-38.8-15.6-30-72,8-51,70-53,70-53l52-1s3-2,1-9c-5.7-19.8-33-21-33-21h-75ZM1357.7,659.4c-1,27,25,28.7,25,28.7l50.9.5v-54.2h-50.9s-24-2-25,25Z"/>
  <path class="st2" d="M505,499s9.5-45.3,56.8-46.2,58.2,46.2,58.2,46.2h54l-52-91h-119.9l-52.6,91h55.5Z"/>
  <circle class="st2" cx="561.5" cy="511.5" r="24.5"/>
  <path class="st2" d="M700.9,500l-60.3-104.3,59.1-105,119.4-.7,60.3,104.3-59.1,105-119.4.7ZM759.5,337c-31.8,0-57.5,26-57.5,58s25.7,58,57.5,58,57.5-26,57.5-58-25.7-58-57.5-58Z"/>
  <text class="st1" transform="translate(640.4 782.7)"><tspan x="0" y="0">Build Your Next Big Idea!</tspan></text>
</svg>